<svg width="46" height="46" viewBox="0 0 46 46" fill="none" xmlns="http://www.w3.org/2000/svg">
<rect x="1" y="1" width="44" height="43.5001" rx="5" fill="#F5F6F8"/>
<rect x="0.5" y="0.5" width="45" height="44.5001" rx="5.5" stroke="#064A79" stroke-opacity="0.6" stroke-dasharray="5 5"/>
<path d="M24.75 32.0001H20.75V33.5001H24.75V32.0001ZM13.5 24.7501V20.7501H12V24.7501H13.5ZM32 24.3131V24.7501H33.5V24.3131H32ZM25.641 15.3611L29.6 18.9241L30.603 17.8081L26.645 14.2451L25.641 15.3611ZM33.5 24.3131C33.5 22.6241 33.515 21.5541 33.09 20.5981L31.719 21.2091C31.985 21.8071 32 22.4921 32 24.3131H33.5ZM29.6 18.9241C30.953 20.1421 31.453 20.6121 31.719 21.2091L33.09 20.5981C32.664 19.6411 31.859 18.9381 30.603 17.8081L29.6 18.9241ZM20.78 13.5001C22.362 13.5001 22.959 13.5121 23.49 13.7161L24.028 12.3161C23.176 11.9881 22.248 12.0001 20.78 12.0001V13.5001ZM26.645 14.2461C25.559 13.2691 24.88 12.6421 24.028 12.3161L23.491 13.7161C24.023 13.9201 24.471 14.3081 25.641 15.3611L26.645 14.2461ZM20.75 32.0001C18.843 32.0001 17.489 31.9981 16.46 31.8601C15.455 31.7251 14.875 31.4711 14.452 31.0481L13.392 32.1081C14.14 32.8581 15.089 33.1891 16.261 33.3471C17.411 33.5021 18.886 33.5001 20.75 33.5001V32.0001ZM12 24.7501C12 26.6141 11.998 28.0881 12.153 29.2391C12.311 30.4111 12.643 31.3601 13.391 32.1091L14.451 31.0491C14.029 30.6251 13.775 30.0451 13.64 29.0391C13.502 28.0121 13.5 26.6571 13.5 24.7501H12ZM24.75 33.5001C26.614 33.5001 28.088 33.5021 29.239 33.3471C30.411 33.1891 31.36 32.8571 32.109 32.1091L31.049 31.0491C30.625 31.4711 30.045 31.7251 29.039 31.8601C28.012 31.9981 26.657 32.0001 24.75 32.0001V33.5001ZM32 24.7501C32 26.6571 31.998 28.0121 31.86 29.0401C31.725 30.0451 31.471 30.6251 31.048 31.0481L32.108 32.1081C32.858 31.3601 33.189 30.4111 33.347 29.2391C33.502 28.0891 33.5 26.6141 33.5 24.7501H32ZM13.5 20.7501C13.5 18.8431 13.502 17.4891 13.64 16.4601C13.775 15.4551 14.029 14.8751 14.452 14.4521L13.392 13.3921C12.642 14.1401 12.311 15.0891 12.153 16.2611C11.998 17.4111 12 18.8861 12 20.7501H13.5ZM20.78 12.0001C18.905 12.0001 17.424 11.9981 16.269 12.1531C15.092 12.3111 14.14 12.6431 13.391 13.3911L14.451 14.4511C14.875 14.0291 15.456 13.7751 16.468 13.6401C17.501 13.5021 18.863 13.5001 20.78 13.5001V12.0001Z" fill="#6089A8" fill-opacity="0.35"/>
<path d="M23.75 13.25V15.75C23.75 18.107 23.75 19.286 24.482 20.018C25.214 20.75 26.393 20.75 28.75 20.75H32.75" stroke="#6089A8" stroke-opacity="0.35" stroke-width="1.5"/>
</svg>
