<?xml version="1.0" encoding="UTF-8"?>
<svg version="1.1" xmlns="http://www.w3.org/2000/svg" width="501" height="498">
<path d="M0 0 C12.87 0 25.74 0 39 0 C39 6.27 39 12.54 39 19 C40.65 19 42.3 19 44 19 C44 12.73 44 6.46 44 0 C47.63 0 51.26 0 55 0 C55 17.16 55 34.32 55 52 C51.37 52 47.74 52 44 52 C43.505 41.605 43.505 41.605 43 31 C41.68 31 40.36 31 39 31 C39 37.93 39 44.86 39 52 C35.37 52 31.74 52 28 52 C28 38.14 28 24.28 28 10 C25.36 10 22.72 10 20 10 C20 23.86 20 37.72 20 52 C16.37 52 12.74 52 9 52 C9 38.14 9 24.28 9 10 C6.03 10 3.06 10 0 10 C0 6.7 0 3.4 0 0 Z " fill="#F4F4F4" transform="translate(176,229)"/>
<path d="M0 0 C4.29 0 8.58 0 13 0 C13.99 3.96 14.98 7.92 16 12 C16.33 8.04 16.66 4.08 17 0 C20.63 0 24.26 0 28 0 C28.02464113 7.24487049 28.0428318 14.48971682 28.05493164 21.73461914 C28.05997356 24.20142033 28.06680691 26.66821852 28.07543945 29.13500977 C28.08751125 32.67204529 28.09322956 36.20904145 28.09765625 39.74609375 C28.10281754 40.85649521 28.10797882 41.96689667 28.11329651 43.11094666 C28.11340981 44.64242088 28.11340981 44.64242088 28.11352539 46.20483398 C28.115746 47.10862289 28.11796661 48.0124118 28.12025452 48.94358826 C28 51 28 51 27 52 C23.3308423 52.14310287 19.67284559 52.04221662 16 52 C14.35 46.39 12.7 40.78 11 35 C10.67 40.61 10.34 46.22 10 52 C2.28515625 52.09765625 2.28515625 52.09765625 0 52 C-1 51 -1 51 -1.11523438 47.81860352 C-1.11395743 46.40118691 -1.10629932 44.98376788 -1.09375 43.56640625 C-1.09016479 42.80743546 -1.08657959 42.04846466 -1.08288574 41.26649475 C-1.02438208 32.81981134 -0.77252867 24.37948724 -0.5 15.9375 C-0.45158347 14.37696054 -0.40340553 12.81641365 -0.35546875 11.25585938 C-0.23971066 7.50381725 -0.12079017 3.75188392 0 0 Z " fill="#3CD679" transform="translate(291,229)"/>
<path d="M0 0 C3.63 0 7.26 0 11 0 C11 13.53 11 27.06 11 41 C14.96 41 18.92 41 23 41 C23.33 27.47 23.66 13.94 24 0 C27.63 0 31.26 0 35 0 C36.62754644 1.62754644 36.12737077 3.44138323 36.12939453 5.6875 C36.13254669 6.68523437 36.13569885 7.68296875 36.13894653 8.7109375 C36.1369223 9.79632813 36.13489807 10.88171875 36.1328125 12 C36.13376923 13.10601562 36.13472595 14.21203125 36.13571167 15.3515625 C36.13639367 17.69531308 36.13453804 20.03906553 36.13037109 22.3828125 C36.12502314 25.98441788 36.13031547 29.58589853 36.13671875 33.1875 C36.13605797 35.45833361 36.13477682 37.72916714 36.1328125 40 C36.13483673 41.08539063 36.13686096 42.17078125 36.13894653 43.2890625 C36.13421829 44.78566406 36.13421829 44.78566406 36.12939453 46.3125 C36.12859894 47.19550781 36.12780334 48.07851563 36.12698364 48.98828125 C36 51 36 51 35 52 C32.40665852 52.0885067 29.83937421 52.1153317 27.24609375 52.09765625 C26.55906372 52.09664917 25.87203369 52.09564209 25.16418457 52.09460449 C22.58860616 52.08935776 20.01305147 52.07539659 17.4375 52.0625 C11.683125 52.041875 5.92875 52.02125 0 52 C0 34.84 0 17.68 0 0 Z " fill="#3DDB7A" transform="translate(253,229)"/>
<path d="M0 0 C3.63 0 7.26 0 11 0 C12.96822886 1.96822886 12.66248381 5.34808709 13 8 C14.32 5.36 15.64 2.72 17 0 C20.96 0 24.92 0 29 0 C27.30547469 5.54043324 24.77774623 10.39608329 22.046875 15.48828125 C20.62181885 20.26860019 21.62003368 23.31256018 23 28 C23.51697239 29.95763558 24.03115604 31.91600912 24.54296875 33.875 C25.37323062 36.97703355 26.20861168 40.07748891 27.05273438 43.17578125 C27.31763672 44.16964844 27.58253906 45.16351563 27.85546875 46.1875 C28.09934326 47.08855469 28.34321777 47.98960937 28.59448242 48.91796875 C28.72830322 49.60503906 28.86212402 50.29210937 29 51 C27.43632022 52.56367978 25.72161607 52.383179 23.5625 52.625 C22.35787109 52.76808594 22.35787109 52.76808594 21.12890625 52.9140625 C19 53 19 53 17 52 C16.21655744 50.00708223 15.51983635 47.97948177 14.875 45.9375 C14.52179688 44.83277344 14.16859375 43.72804688 13.8046875 42.58984375 C13.53914063 41.73519531 13.27359375 40.88054687 13 40 C12.93941406 40.78246094 12.87882812 41.56492187 12.81640625 42.37109375 C12.73261719 43.38300781 12.64882813 44.39492188 12.5625 45.4375 C12.48128906 46.44683594 12.40007812 47.45617187 12.31640625 48.49609375 C12 51 12 51 11 52 C7.37 52 3.74 52 0 52 C0 34.84 0 17.68 0 0 Z " fill="#38DE79" transform="translate(321,229)"/>
<path d="M0 0 C4.62 0 9.24 0 14 0 C15.46692782 4.82395814 16.49708938 9.50984578 17.25390625 14.5078125 C17.35968491 15.19632294 17.46546356 15.88483337 17.57444763 16.59420776 C17.90804054 18.77051687 18.23554033 20.94768543 18.5625 23.125 C18.89421579 25.309258 19.22721657 27.49331299 19.56126404 29.67721558 C19.86292108 31.65310758 20.16117032 33.62951895 20.45922852 35.60595703 C20.78988028 37.68122604 21.15084019 39.75230727 21.56396484 41.81274414 C22.24537095 45.23083895 22.0589553 48.52163731 22 52 C18.37 52 14.74 52 11 52 C10.34 49.03 9.68 46.06 9 43 C7.35 43 5.7 43 4 43 C3.67 45.97 3.34 48.94 3 52 C-0.63 52 -4.26 52 -8 52 C-5.69838985 34.59176053 -3.16236133 17.27523983 0 0 Z M7 26 C6.67 27.98 6.34 29.96 6 32 C6.66 32 7.32 32 8 32 C8 30.02 8 28.04 8 26 C7.67 26 7.34 26 7 26 Z " fill="#E8E8E8" transform="translate(159,229)"/>
<path d="M0 0 C9.57 0 19.14 0 29 0 C29 16.83 29 33.66 29 51 C31.97 51 34.94 51 38 51 C38 44.07 38 37.14 38 30 C38.99 30.33 39.98 30.66 41 31 C40.34 31 39.68 31 39 31 C39 37.93 39 44.86 39 52 C35.37 52 31.74 52 28 52 C28 38.14 28 24.28 28 10 C25.36 10 22.72 10 20 10 C20 23.86 20 37.72 20 52 C16.37 52 12.74 52 9 52 C9 38.14 9 24.28 9 10 C6.03 10 3.06 10 0 10 C0 6.7 0 3.4 0 0 Z " fill="#E9E9EA" transform="translate(176,229)"/>
<path d="M0 0 C1.81242052 -0.02687279 3.62495233 -0.04633715 5.4375 -0.0625 C6.44683594 -0.07410156 7.45617187 -0.08570313 8.49609375 -0.09765625 C11 0 11 0 12 1 C12.36760731 3.32817964 12.70241581 5.6618385 13 8 C14.32 5.36 15.64 2.72 17 0 C20.96 0 24.92 0 29 0 C27.30547469 5.54043324 24.77774623 10.39608329 22.046875 15.48828125 C20.62181885 20.26860019 21.62003368 23.31256018 23 28 C23.51697239 29.95763558 24.03115604 31.91600912 24.54296875 33.875 C25.37323062 36.97703355 26.20861168 40.07748891 27.05273438 43.17578125 C27.31763672 44.16964844 27.58253906 45.16351563 27.85546875 46.1875 C28.09934326 47.08855469 28.34321777 47.98960937 28.59448242 48.91796875 C28.72830322 49.60503906 28.86212402 50.29210937 29 51 C27.43632022 52.56367978 25.72161607 52.383179 23.5625 52.625 C22.35787109 52.76808594 22.35787109 52.76808594 21.12890625 52.9140625 C19 53 19 53 17 52 C16.21655744 50.00708223 15.51983635 47.97948177 14.875 45.9375 C14.52179688 44.83277344 14.16859375 43.72804688 13.8046875 42.58984375 C13.53914063 41.73519531 13.27359375 40.88054687 13 40 C12.67 43.63 12.34 47.26 12 51 C11.67 51 11.34 51 11 51 C10.9730499 48.06243881 10.95318526 45.12512445 10.9375 42.1875 C10.92912109 41.35412109 10.92074219 40.52074219 10.91210938 39.66210938 C10.90888672 38.85966797 10.90566406 38.05722656 10.90234375 37.23046875 C10.89710693 36.49207764 10.89187012 35.75368652 10.88647461 34.99291992 C11 33 11 33 12 30 C12.66 30 13.32 30 14 30 C14 29.34 14 28.68 14 28 C15.32 27.67 16.64 27.34 18 27 C18 26.01 18 25.02 18 24 C17.34 23.67 16.68 23.34 16 23 C16 21.02 16 19.04 16 17 C14.35 17.66 12.7 18.32 11 19 C11.33 17.68 11.66 16.36 12 15 C11.34 14.67 10.68 14.34 10 14 C10 10.04 10 6.08 10 2 C6.7 2 3.4 2 0 2 C0 1.34 0 0.68 0 0 Z " fill="#32C56B" transform="translate(321,229)"/>
<path d="M0 0 C3.63 0 7.26 0 11 0 C11 13.53 11 27.06 11 41 C14.96 41 18.92 41 23 41 C22.67 41.66 22.34 42.32 22 43 C21.95977609 45.3329866 21.95679753 47.66706666 22 50 C18.85418577 50.02888514 15.70840531 50.04675923 12.5625 50.0625 C11.66466797 50.07087891 10.76683594 50.07925781 9.84179688 50.08789062 C8.56079102 50.09272461 8.56079102 50.09272461 7.25390625 50.09765625 C6.46314697 50.10289307 5.6723877 50.10812988 4.85766602 50.11352539 C3 50 3 50 2 49 C1.92680379 46.30345146 1.90757463 43.63308542 1.9375 40.9375 C1.94201172 40.17888672 1.94652344 39.42027344 1.95117188 38.63867188 C1.9629932 36.75908129 1.98092922 34.87953101 2 33 C2.33 33 2.66 33 3 33 C3.33 35.64 3.66 38.28 4 41 C5.32 41 6.64 41 8 41 C9.63657754 37.72684491 9.2430807 34.09377769 9.31640625 30.4921875 C9.33718735 29.65156769 9.35796844 28.81094788 9.37937927 27.94485474 C9.44485439 25.25498765 9.5037502 22.56502157 9.5625 19.875 C9.60568716 18.05337511 9.64930152 16.23176029 9.69335938 14.41015625 C9.80053368 9.94020606 9.90180685 5.47015614 10 1 C7.03 1 4.06 1 1 1 C1 17.5 1 34 1 51 C8.26 51 15.52 51 23 51 C23 51.33 23 51.66 23 52 C15.41 52 7.82 52 0 52 C0 34.84 0 17.68 0 0 Z " fill="#35B566" transform="translate(253,229)"/>
<path d="M0 0 C1.81242052 -0.02687279 3.62495233 -0.04633715 5.4375 -0.0625 C6.44683594 -0.07410156 7.45617187 -0.08570313 8.49609375 -0.09765625 C11 0 11 0 12 1 C12.36760731 3.32817964 12.70241581 5.6618385 13 8 C14.32 5.36 15.64 2.72 17 0 C20.96 0 24.92 0 29 0 C27.67331865 4.33598296 25.92469383 8.1213642 23.8125 12.125 C20.65061125 18.77798141 20.58504806 23.8609243 22 31 C21.34 31.33 20.68 31.66 20 32 C19.87882812 31.43410156 19.75765625 30.86820312 19.6328125 30.28515625 C19.46523438 29.55167969 19.29765625 28.81820313 19.125 28.0625 C18.96257812 27.33160156 18.80015625 26.60070312 18.6328125 25.84765625 C18.17038477 23.79299706 18.17038477 23.79299706 16 23 C16 21.02 16 19.04 16 17 C14.35 17.66 12.7 18.32 11 19 C11.33 17.68 11.66 16.36 12 15 C11.34 14.67 10.68 14.34 10 14 C10 10.04 10 6.08 10 2 C6.7 2 3.4 2 0 2 C0 1.34 0 0.68 0 0 Z " fill="#3BD075" transform="translate(321,229)"/>
<path d="M0 0 C1.81242052 -0.02687279 3.62495233 -0.04633715 5.4375 -0.0625 C6.44683594 -0.07410156 7.45617187 -0.08570313 8.49609375 -0.09765625 C11 0 11 0 12 1 C12.0634834 2.35212691 12.05723393 3.70764037 12.02172852 5.06079102 C11.99158409 6.35201622 11.99158409 6.35201622 11.96083069 7.66932678 C11.92027809 9.07244362 11.92027809 9.07244362 11.87890625 10.50390625 C11.85529526 11.45692123 11.83168427 12.40993622 11.80735779 13.39183044 C11.73051613 16.44886421 11.64658053 19.50565758 11.5625 22.5625 C11.50929982 24.62954536 11.45655931 26.6966026 11.40429688 28.76367188 C11.27487338 33.84260141 11.13908558 38.92132624 11 44 C10.67 44 10.34 44 10 44 C10 30.14 10 16.28 10 2 C7.36 2 4.72 2 2 2 C2.03552979 3.13429443 2.07105957 4.26858887 2.10766602 5.43725586 C2.23889699 9.68073192 2.36174622 13.92441775 2.48217773 18.16821289 C2.53526049 19.99835784 2.59055921 21.82844 2.64819336 23.65844727 C2.73105546 26.30210839 2.8057144 28.94589927 2.87890625 31.58984375 C2.90594131 32.39646957 2.93297638 33.2030954 2.96083069 34.03416443 C3.10046095 39.45455452 2.69787179 44.62145275 2 50 C4.64 50 7.28 50 10 50 C10 48.35 10 46.7 10 45 C10.66 45 11.32 45 12 45 C12.04254356 46.99954746 12.04080783 49.00041636 12 51 C11 52 11 52 8.53125 52.1328125 C7.03078125 52.12894531 7.03078125 52.12894531 5.5 52.125 C4.4996875 52.12757813 3.499375 52.13015625 2.46875 52.1328125 C0 52 0 52 -1 51 C-1.06391162 49.40287317 -1.05706544 47.80284841 -1.02172852 46.20483398 C-0.99158409 44.67335976 -0.99158409 44.67335976 -0.96083069 43.11094666 C-0.93379562 42.0005452 -0.90676056 40.89014374 -0.87890625 39.74609375 C-0.85529526 38.61551041 -0.83168427 37.48492706 -0.80735779 36.32008362 C-0.73049877 32.69243498 -0.64657054 29.064988 -0.5625 25.4375 C-0.50930157 22.98503606 -0.45656105 20.53256215 -0.40429688 18.08007812 C-0.27485371 12.05325937 -0.1395991 6.0265916 0 0 Z " fill="#48AF6B" transform="translate(277,229)"/>
<path d="M0 0 C6.27 0 12.54 0 19 0 C19 3.3 19 6.6 19 10 C12.73 10 6.46 10 0 10 C0 6.7 0 3.4 0 0 Z " fill="#E8E9E9" transform="translate(233,250)"/>
<path d="M0 0 C0.66 0.33 1.32 0.66 2 1 C2.44921875 3.14453125 2.44921875 3.14453125 2.6875 5.8125 C2.77386719 6.68519531 2.86023438 7.55789063 2.94921875 8.45703125 C2.99797239 10.89846365 2.63951155 12.6662601 2 15 C1.96111651 17.33300933 1.9551365 19.66709801 2 22 C-0.31 22 -2.62 22 -5 22 C-5 15.73 -5 9.46 -5 3 C-4.01 4.485 -4.01 4.485 -3 6 C-2.690625 5.195625 -2.38125 4.39125 -2.0625 3.5625 C-1 1 -1 1 0 0 Z " fill="#37DF78" transform="translate(328,256)"/>
<path d="M0 0 C0.33 0 0.66 0 1 0 C1.70079649 15.67659386 2.1499289 31.30744139 2 47 C4.64 47 7.28 47 10 47 C10.33 47.66 10.66 48.32 11 49 C7.37 49 3.74 49 0 49 C0 32.83 0 16.66 0 0 Z " fill="#389159" transform="translate(321,232)"/>
<path d="M0 0 C0.33 0 0.66 0 1 0 C1.33 7.59 1.66 15.18 2 23 C4.31 23.33 6.62 23.66 9 24 C9 16.08 9 8.16 9 0 C9.66 0 10.32 0 11 0 C10.67 8.25 10.34 16.5 10 25 C6.7 25 3.4 25 0 25 C-1.83036568 23.16963432 -1.13243544 20.64385603 -1.13671875 18.2109375 C-1.13285156 17.44007813 -1.12898438 16.66921875 -1.125 15.875 C-1.13080078 14.75351562 -1.13080078 14.75351562 -1.13671875 13.609375 C-1.12863808 8.97107162 -0.76455296 4.57518202 0 0 Z " fill="#41845D" transform="translate(291,256)"/>
<path d="M0 0 C1.47906892 -0.02689216 2.95827483 -0.04634621 4.4375 -0.0625 C5.26121094 -0.07410156 6.08492188 -0.08570313 6.93359375 -0.09765625 C9 0 9 0 10 1 C10.0634834 2.35212691 10.05723393 3.70764037 10.02172852 5.06079102 C9.99158409 6.35201622 9.99158409 6.35201622 9.96083069 7.66932678 C9.92027809 9.07244362 9.92027809 9.07244362 9.87890625 10.50390625 C9.85529526 11.45692123 9.83168427 12.40993622 9.80735779 13.39183044 C9.73051613 16.44886421 9.64658053 19.50565758 9.5625 22.5625 C9.50929982 24.62954536 9.45655931 26.6966026 9.40429688 28.76367188 C9.27487338 33.84260141 9.13908558 38.92132624 9 44 C8.67 44 8.34 44 8 44 C8 30.14 8 16.28 8 2 C5.69 2 3.38 2 1 2 C0.67 1.34 0.34 0.68 0 0 Z " fill="#3AAB68" transform="translate(279,229)"/>
<path d="M0 0 C0.33 0 0.66 0 1 0 C1.33 5.94 1.66 11.88 2 18 C4.64 18 7.28 18 10 18 C10 16.35 10 14.7 10 13 C10.66 13 11.32 13 12 13 C12.04254356 14.99954746 12.04080783 17.00041636 12 19 C11 20 11 20 8.53125 20.1328125 C7.03078125 20.12894531 7.03078125 20.12894531 5.5 20.125 C4.4996875 20.12757813 3.499375 20.13015625 2.46875 20.1328125 C0 20 0 20 -1 19 C-1.20356195 12.5877985 -0.74428438 6.3662896 0 0 Z " fill="#2A804A" transform="translate(277,261)"/>
<path d="M0 0 C0.66 0.33 1.32 0.66 2 1 C2.5625 3.1796875 2.5625 3.1796875 3 5.875 C3.5722779 9.38020217 3.98046184 10.97069276 6 14 C9.56769552 14.73606499 9.56769552 14.73606499 13 15 C13.33 14.34 13.66 13.68 14 13 C14.33 13.99 14.66 14.98 15 16 C13.43632022 17.56367978 11.72161607 17.383179 9.5625 17.625 C8.75941406 17.72039062 7.95632813 17.81578125 7.12890625 17.9140625 C5 18 5 18 3 17 C1.89453125 14.453125 1.89453125 14.453125 0.8125 11.25 C0.26529297 9.67992187 0.26529297 9.67992187 -0.29296875 8.078125 C-1.01966071 4.91440531 -0.89622727 3.08256513 0 0 Z " fill="#44A86E" transform="translate(335,264)"/>
<path d="M0 0 C4.29 0 8.58 0 13 0 C13.99 3.96 14.98 7.92 16 12 C16.33 9.69 16.66 7.38 17 5 C17.33 5 17.66 5 18 5 C18 9.62 18 14.24 18 19 C16.68 18.34 15.36 17.68 14 17 C13.3125 13.4375 13.3125 13.4375 13 10 C12.67 9.67 12.34 9.34 12 9 C11.85884839 6.32941149 11.95752893 3.67567762 12 1 C8.04 1 4.08 1 0 1 C0 0.67 0 0.34 0 0 Z " fill="#379C5D" transform="translate(291,229)"/>
<path d="M0 0 C3.3 0 6.6 0 10 0 C9.34 1.32 8.68 2.64 8 4 C8 3.34 8 2.68 8 2 C6.68 2 5.36 2 4 2 C3.34 6.62 2.68 11.24 2 16 C1.67 16 1.34 16 1 16 C0.67 10.72 0.34 5.44 0 0 Z " fill="#4ACB7F" transform="translate(308,229)"/>
<path d="M0 0 C1.81242052 -0.02687279 3.62495233 -0.04633715 5.4375 -0.0625 C6.44683594 -0.07410156 7.45617187 -0.08570313 8.49609375 -0.09765625 C11 0 11 0 12 1 C12.23363881 2.84891946 12.41303635 4.70488031 12.5625 6.5625 C12.64628906 7.57441406 12.73007812 8.58632812 12.81640625 9.62890625 C12.87699219 10.41136719 12.93757813 11.19382813 13 12 C12.34 12 11.68 12 11 12 C10.67 12.66 10.34 13.32 10 14 C10 10.04 10 6.08 10 2 C6.7 2 3.4 2 0 2 C0 1.34 0 0.68 0 0 Z " fill="#3F9161" transform="translate(321,229)"/>
<path d="M0 0 C3.96 0 7.92 0 12 0 C10.40109514 5.19644079 8.25861997 10.06612142 6 15 C5.67 15 5.34 15 5 15 C5 12.36 5 9.72 5 7 C5.66 7 6.32 7 7 7 C7 6.34 7 5.68 7 5 C7.66 5 8.32 5 9 5 C9 4.01 9 3.02 9 2 C6.03 2 3.06 2 0 2 C0 1.34 0 0.68 0 0 Z " fill="#46A06E" transform="translate(338,229)"/>
<path d="M0 0 C2 1 2 1 2.81640625 3.25 C3.06261719 4.1575 3.30882812 5.065 3.5625 6 C4.26490893 9.28253366 4.26490893 9.28253366 6 12 C6.04063832 13.66617115 6.042721 15.33388095 6 17 C6.99 17.33 7.98 17.66 9 18 C7.35 18.33 5.7 18.66 4 19 C3.32263519 16.96185767 2.65856466 14.91929445 2 12.875 C1.62875 11.73804688 1.2575 10.60109375 0.875 9.4296875 C0.03088051 6.12104059 -0.16509276 3.39471984 0 0 Z " fill="#3EB36A" transform="translate(302,258)"/>
<path d="M0 0 C0.66 0.33 1.32 0.66 2 1 C1.67 6.94 1.34 12.88 1 19 C-1.97 18.67 -4.94 18.34 -8 18 C-8 17.67 -8 17.34 -8 17 C-5.69 17 -3.38 17 -1 17 C-1.33 13.04 -1.66 9.08 -2 5 C-1.67 5 -1.34 5 -1 5 C-0.67 3.35 -0.34 1.7 0 0 Z " fill="#48D284" transform="translate(331,261)"/>
<path d="M0 0 C3.2645028 3.2645028 3.93236055 7.41047299 4.125 11.9375 C4.08375 12.618125 4.0425 13.29875 4 14 C3.01 14.495 3.01 14.495 2 15 C1.87882812 14.43410156 1.75765625 13.86820312 1.6328125 13.28515625 C1.38144531 12.18494141 1.38144531 12.18494141 1.125 11.0625 C0.96257812 10.33160156 0.80015625 9.60070312 0.6328125 8.84765625 C0.17038477 6.79299706 0.17038477 6.79299706 -2 6 C-1.34 6 -0.68 6 0 6 C0 4.02 0 2.04 0 0 Z " fill="#48C679" transform="translate(339,246)"/>
<path d="M0 0 C1.64767247 0.28109113 3.29313145 0.57518526 4.9375 0.875 C5.85402344 1.03742188 6.77054687 1.19984375 7.71484375 1.3671875 C8.46894531 1.57601563 9.22304688 1.78484375 10 2 C10.33 2.66 10.66 3.32 11 4 C7.37 4 3.74 4 0 4 C0 2.68 0 1.36 0 0 Z " fill="#43A96A" transform="translate(307,277)"/>
<path d="M0 0 C0.66 0.33 1.32 0.66 2 1 C2.4140625 3.94140625 2.4140625 3.94140625 2.625 7.5625 C2.69976562 8.76003906 2.77453125 9.95757812 2.8515625 11.19140625 C2.90054687 12.11824219 2.94953125 13.04507812 3 14 C1.26263341 11.39395012 0.54996173 9.92766764 -0.1875 7 C-0.36667969 6.319375 -0.54585938 5.63875 -0.73046875 4.9375 C-1 3 -1 3 0 0 Z " fill="#379F61" transform="translate(335,264)"/>
<path d="M0 0 C1.47906892 -0.02689216 2.95827483 -0.04634621 4.4375 -0.0625 C5.26121094 -0.07410156 6.08492188 -0.08570313 6.93359375 -0.09765625 C9 0 9 0 10 1 C10.04063832 2.66617115 10.042721 4.33388095 10 6 C9.34 6 8.68 6 8 6 C8 4.68 8 3.36 8 2 C5.69 2 3.38 2 1 2 C0.67 1.34 0.34 0.68 0 0 Z " fill="#44AE6D" transform="translate(279,229)"/>
<path d="M0 0 C1.69433918 3.0469629 2.49467112 5.82821466 3.125 9.25 C3.29257812 10.14203125 3.46015625 11.0340625 3.6328125 11.953125 C3.75398438 12.62859375 3.87515625 13.3040625 4 14 C3.34 14 2.68 14 2 14 C1.46877637 12.23225581 0.95035927 10.46065917 0.4375 8.6875 C0.14746094 7.70136719 -0.14257812 6.71523438 -0.44140625 5.69921875 C-1 3 -1 3 0 0 Z " fill="#36925E" transform="translate(343,257)"/>
<path d="M0 0 C0.66 0 1.32 0 2 0 C1.39009109 3.55780196 0.4216319 6.6828589 -1 10 C-1.33 10 -1.66 10 -2 10 C-2 7.36 -2 4.72 -2 2 C-1.34 2 -0.68 2 0 2 C0 1.34 0 0.68 0 0 Z " fill="#3DAA6A" transform="translate(345,234)"/>
<path d="M0 0 C0.66 0 1.32 0 2 0 C1.67 2.31 1.34 4.62 1 7 C0.34 7 -0.32 7 -1 7 C-1.04254356 5.00045254 -1.04080783 2.99958364 -1 1 C-0.67 0.67 -0.34 0.34 0 0 Z " fill="#47D881" transform="translate(345,271)"/>
<path d="M0 0 C0.99 0 1.98 0 3 0 C3 0.99 3 1.98 3 3 C2.34 3 1.68 3 1 3 C1 3.66 1 4.32 1 5 C0.34 5 -0.32 5 -1 5 C-1.33 5.66 -1.66 6.32 -2 7 C-2 5.68 -2 4.36 -2 3 C-1.34 3 -0.68 3 0 3 C0 2.01 0 1.02 0 0 Z " fill="#3FDB7B" transform="translate(344,231)"/>
</svg>
