<?xml version="1.0" encoding="UTF-8"?>
<svg version="1.1" xmlns="http://www.w3.org/2000/svg" width="188" height="132">
<path d="M0 0 C0.72822464 0.02502594 1.45644928 0.05005188 2.20674133 0.07583618 C4.53023506 0.15793953 6.85286631 0.25456429 9.17578125 0.3515625 C10.75191801 0.40981209 12.32809006 0.46711516 13.90429688 0.5234375 C17.76612011 0.66350349 21.62723328 0.81659441 25.48828125 0.9765625 C30.81802157 11.60336762 36.12685118 22.24025085 41.35498047 32.91748047 C42.12179381 34.47985027 42.89174163 36.04068492 43.66455078 37.60009766 C44.80077916 39.89386758 45.9268146 42.19238951 47.05078125 44.4921875 C47.39753906 45.18693176 47.74429688 45.88167603 48.1015625 46.59747314 C49.77653367 50.05242296 50.48828125 52.05806346 50.48828125 55.9765625 C45.71949715 56.10031329 40.95165048 56.19096896 36.18164062 56.2512207 C34.5597302 56.27634022 32.93793271 56.31044278 31.31640625 56.35375977 C28.98278954 56.41453103 26.65067077 56.44279544 24.31640625 56.46484375 C23.5933429 56.49065018 22.87027954 56.5164566 22.12530518 56.54304504 C18.36560555 56.54513185 16.83946654 56.32459278 14.12402344 53.63354492 C13.58422852 52.75674072 13.04443359 51.87993652 12.48828125 50.9765625 C11.82828125 49.9865625 11.16828125 48.9965625 10.48828125 47.9765625 C7.65827269 47.93039159 7.65827269 47.93039159 4.48828125 48.9765625 C3.29705408 50.58813809 3.29705408 50.58813809 2.27661133 52.49243164 C0.1170952 55.66430164 -0.18562917 55.90631155 -4.20043945 56.77124023 C-5.61327784 56.77014225 -7.02644693 56.73116863 -8.4375 56.66015625 C-9.18509079 56.65025162 -9.93268158 56.64034698 -10.70292664 56.63014221 C-13.07873122 56.59111312 -15.44982438 56.50333992 -17.82421875 56.4140625 C-19.43938613 56.37893257 -21.05462634 56.34699647 -22.66992188 56.31835938 C-26.61898853 56.24139238 -30.56455652 56.12071202 -34.51171875 55.9765625 C-33.94502712 51.38936547 -32.70829142 47.85226929 -30.66796875 43.71484375 C-30.38274857 43.13037476 -30.09752838 42.54590576 -29.80366516 41.94372559 C-28.88024947 40.05518844 -27.9462652 38.17211278 -27.01171875 36.2890625 C-26.05184315 34.33661579 -25.09427783 32.38304794 -24.13691711 30.42936707 C-23.49956039 29.12912196 -22.86128722 27.82932566 -22.22209167 26.52998352 C-20.33069472 22.67864671 -18.48572252 18.81010132 -16.6875 14.9140625 C-16.28144531 14.03580811 -15.87539062 13.15755371 -15.45703125 12.25268555 C-14.72022034 10.65028061 -13.98941456 9.04509609 -13.265625 7.43676758 C-10.04345119 0.47057484 -7.28248463 -0.3319447 0 0 Z " fill="#010101" transform="translate(89.51171875,11.0234375)"/>
<path d="M0 0 C1.38264793 -0.00287018 1.38264793 -0.00287018 2.79322815 -0.00579834 C4.73202794 -0.00715214 6.67083705 -0.00351228 8.60961914 0.00488281 C11.5544094 0.01558141 14.49858799 0.00496628 17.44335938 -0.0078125 C19.33724091 -0.00649052 21.23112207 -0.00392734 23.125 0 C23.99402451 -0.00404846 24.86304901 -0.00809692 25.75840759 -0.01226807 C31.48801892 0.03102256 36.57211952 0.85533347 42.12890625 2.265625 C42.12890625 1.605625 42.12890625 0.945625 42.12890625 0.265625 C46.05737425 0.16537947 49.98532859 0.09352256 53.91479492 0.04589844 C55.89463533 0.01632366 57.87412126 -0.03455033 59.85351562 -0.0859375 C69.36169092 -0.18222282 77.1388238 1.00679565 85.19140625 6.265625 C88.04063372 9.20676304 88.97349672 11.0741519 89.50390625 15.140625 C89.00875908 19.26685143 87.85728206 21.12799282 85.12890625 24.265625 C75.22776232 31.24661588 62.6696424 30.58574689 51.11572266 30.52636719 C48.63419154 30.51564783 46.15338415 30.52630914 43.671875 30.5390625 C35.56197094 30.54516017 28.03819532 30.29117464 20.12890625 28.265625 C19.79890625 28.925625 19.46890625 29.585625 19.12890625 30.265625 C14.85820661 30.35387195 10.58774636 30.40643154 6.31640625 30.453125 C5.12080078 30.47826172 3.92519531 30.50339844 2.69335938 30.52929688 C-7.14707553 30.6097364 -17.07120183 29.89553313 -24.87109375 23.265625 C-27.28006896 20.29455558 -27.83622246 18.5910904 -28.24609375 14.765625 C-27.83302304 10.91029838 -27.3510362 9.22555631 -24.87109375 6.265625 C-17.08243522 0.92046718 -9.24637892 -0.04297534 0 0 Z M50.12890625 8.265625 C50.12890625 12.555625 50.12890625 16.845625 50.12890625 21.265625 C61.68474215 21.95254651 61.68474215 21.95254651 71.9140625 17.69140625 C72.31496094 17.22089844 72.71585938 16.75039062 73.12890625 16.265625 C71.75907122 13.10446724 71.13984245 12.2729158 68.12890625 10.265625 C66.10641046 9.81285752 66.10641046 9.81285752 63.8984375 9.6328125 C63.09599609 9.54902344 62.29355469 9.46523437 61.46679688 9.37890625 C60.63341797 9.30027344 59.80003906 9.22164062 58.94140625 9.140625 C57.67393555 9.01107422 57.67393555 9.01107422 56.38085938 8.87890625 C54.29761702 8.6670511 52.21334583 8.46535723 50.12890625 8.265625 Z M-9.87109375 12.265625 C-10.53109375 13.255625 -11.19109375 14.245625 -11.87109375 15.265625 C-9.59694088 18.63650767 -9.59694088 18.63650767 -5.87109375 20.265625 C-2.71631005 20.49173578 0.43180988 20.65826632 3.59179688 20.78320312 C7.22767397 20.97418577 10.02026104 21.30185169 13.12890625 23.265625 C12.91234375 22.65074219 12.69578125 22.03585938 12.47265625 21.40234375 C12.19421875 20.59410156 11.91578125 19.78585938 11.62890625 18.953125 C11.35046875 18.15261719 11.07203125 17.35210937 10.78515625 16.52734375 C10.12890625 14.265625 10.12890625 14.265625 10.12890625 11.265625 C14.74890625 10.935625 19.36890625 10.605625 24.12890625 10.265625 C24.12890625 9.935625 24.12890625 9.605625 24.12890625 9.265625 C19.58736147 9.17827037 15.04603393 9.12511253 10.50390625 9.078125 C9.21871094 9.05298828 7.93351562 9.02785156 6.609375 9.00195312 C5.36542969 8.99228516 4.12148437 8.98261719 2.83984375 8.97265625 C1.69821777 8.9569458 0.5565918 8.94123535 -0.61962891 8.92504883 C-4.34156108 9.31490432 -6.69692944 10.30733576 -9.87109375 12.265625 Z M25.12890625 9.265625 C25.27328125 9.8225 25.41765625 10.379375 25.56640625 10.953125 C26.12890625 13.265625 26.12890625 13.265625 26.50390625 15.890625 C26.94127114 18.6197201 26.94127114 18.6197201 30.12890625 20.265625 C32.75422149 20.43276069 32.75422149 20.43276069 35.12890625 20.265625 C35.54616303 16.89161922 35.54616303 16.89161922 35.12890625 13.265625 C32.07139712 10.64490289 29.07120568 9.82881063 25.12890625 9.265625 Z M45.12890625 20.265625 C49.12890625 21.265625 49.12890625 21.265625 49.12890625 21.265625 Z " fill="#030303" transform="translate(65.87109375,68.734375)"/>
<path d="M0 0 C1.28519531 0.00193359 2.57039063 0.00386719 3.89453125 0.00585938 C4.89734131 0.01516479 4.89734131 0.01516479 5.92041016 0.0246582 C7.96139017 0.04290296 10.00191572 0.04516784 12.04296875 0.04492188 C22.04757801 0.09007809 22.04757801 0.09007809 25.46875 1.23046875 C24.13172758 6.38565468 22.34104927 11.00172908 20.03125 15.79296875 C19.73154297 16.42654297 19.43183594 17.06011719 19.12304688 17.71289062 C17.28755502 21.57897 15.38336659 25.40123557 13.46875 29.23046875 C1.91875 29.23046875 -9.63125 29.23046875 -21.53125 29.23046875 C-20.32684122 23.20842484 -17.90105482 18.4938696 -15.15625 13.04296875 C-14.66125 12.03298828 -14.16625 11.02300781 -13.65625 9.98242188 C-13.17414062 9.01884766 -12.69203125 8.05527344 -12.1953125 7.0625 C-11.75654785 6.18311768 -11.3177832 5.30373535 -10.86572266 4.39770508 C-8.04936096 -0.17617762 -4.95453812 -0.01725024 0 0 Z " fill="#010101" transform="translate(46.53125,99.76953125)"/>
<path d="M0 0 C11.22 0 22.44 0 34 0 C44.06833713 18.65603645 44.06833713 18.65603645 47 27 C46 28 46 28 42.76538086 28.11352539 C41.33185874 28.11336631 39.89833088 28.10767407 38.46484375 28.09765625 C37.33496788 28.09553383 37.33496788 28.09553383 36.18226624 28.09336853 C33.7673044 28.08775376 31.35243399 28.07519883 28.9375 28.0625 C27.30403779 28.0574869 25.67057414 28.05292366 24.03710938 28.04882812 C20.02470415 28.03777954 16.01236759 28.02050506 12 28 C11.56131592 27.07719238 11.56131592 27.07719238 11.11376953 26.13574219 C9.78458982 23.34029957 8.45480126 20.545147 7.125 17.75 C6.66480469 16.78191406 6.20460937 15.81382813 5.73046875 14.81640625 C5.28574219 13.88183594 4.84101562 12.94726562 4.3828125 11.984375 C3.77010498 10.69611816 3.77010498 10.69611816 3.14501953 9.38183594 C2.41479665 7.8628478 1.65294218 6.3583929 0.85107422 4.87597656 C0 3 0 3 0 0 Z " fill="#020202" transform="translate(123,101)"/>
<path d="M0 0 C1.22589844 0.15275391 1.22589844 0.15275391 2.4765625 0.30859375 C3.41628906 0.43427734 3.41628906 0.43427734 4.375 0.5625 C4.375 1.2225 4.375 1.8825 4.375 2.5625 C3.116875 2.624375 1.85875 2.68625 0.5625 2.75 C-2.87846016 3.15312965 -2.87846016 3.15312965 -5.3125 5.5625 C-5.9621875 7.0475 -5.9621875 7.0475 -6.625 8.5625 C-7.49229393 10.08774105 -8.36793733 11.60825201 -9.25 13.125 C-10.85432719 15.93014178 -11.97756049 18.39004639 -12.625 21.5625 C-13.285 21.5625 -13.945 21.5625 -14.625 21.5625 C-14.955 22.8825 -15.285 24.2025 -15.625 25.5625 C-16.285 25.2325 -16.945 24.9025 -17.625 24.5625 C-17.04037809 20.98608235 -16.09297175 18.15713538 -14.41015625 14.953125 C-13.97123047 14.11652344 -13.53230469 13.27992187 -13.08007812 12.41796875 C-12.62052734 11.55816406 -12.16097656 10.69835937 -11.6875 9.8125 C-11.23181641 8.93722656 -10.77613281 8.06195313 -10.30664062 7.16015625 C-6.100372 -0.78433354 -6.100372 -0.78433354 0 0 Z " fill="#0C0C0D" transform="translate(44.625,100.4375)"/>
<path d="M0 0 C0.66 0.33 1.32 0.66 2 1 C0.23625439 5.5073499 -1.75666905 9.88642794 -3.78125 14.28125 C-4.5689669 16.03846462 -5.31938571 17.81309262 -6.0234375 19.60546875 C-7.38398565 22.94153281 -9.17434407 25.89638492 -11 29 C-11.66 29 -12.32 29 -13 29 C-11.71909176 22.09423386 -9.57511921 16.29760836 -6.5 10 C-5.89478516 8.71416016 -5.89478516 8.71416016 -5.27734375 7.40234375 C-2.26714025 1.13357013 -2.26714025 1.13357013 0 0 Z " fill="#0E0E0F" transform="translate(70,35)"/>
<path d="M0 0 C0.91007812 0.00902344 1.82015625 0.01804688 2.7578125 0.02734375 C3.45648438 0.03894531 4.15515625 0.05054688 4.875 0.0625 C5.205 1.3825 5.535 2.7025 5.875 4.0625 C4.6375 3.815 3.4 3.5675 2.125 3.3125 C-1.44066754 2.83867896 -1.44066754 2.83867896 -4.5 4.8125 C-5.74512374 6.53651749 -6.94535606 8.29303409 -8.125 10.0625 C-9.115 10.0625 -10.105 10.0625 -11.125 10.0625 C-7.17602764 -0.09200035 -7.17602764 -0.09200035 0 0 Z " fill="#0A0A0A" transform="translate(98.125,55.9375)"/>
<path d="M0 0 C1.98 0 3.96 0 6 0 C4.78184562 4.68520915 3.30440013 8.70543612 1 13 C-0.32 12.67 -1.64 12.34 -3 12 C-2.69964844 11.46890625 -2.39929687 10.9378125 -2.08984375 10.390625 C-1.70957031 9.68421875 -1.32929687 8.9778125 -0.9375 8.25 C-0.55464844 7.55390625 -0.17179687 6.8578125 0.22265625 6.140625 C1.1312406 3.63859372 0.88336837 2.4667645 0 0 Z " fill="#09090B" transform="translate(66,101)"/>
<path d="M0 0 C0.99 0.33 1.98 0.66 3 1 C2.67 3.31 2.34 5.62 2 8 C1.34 8 0.68 8 0 8 C-0.66 9.32 -1.32 10.64 -2 12 C-2.66 11.67 -3.32 11.34 -4 11 C-2.25 3.375 -2.25 3.375 0 0 Z " fill="#080808" transform="translate(77,18)"/>
<path d="M0 0 C0.99 0 1.98 0 3 0 C3 2.97 3 5.94 3 9 C2.01 8.67 1.02 8.34 0 8 C-0.79953138 4.71303767 -1.09658936 3.28976808 0 0 Z " fill="#09090A" transform="translate(76,80)"/>
<path d="M0 0 C2.97 0.33 5.94 0.66 9 1 C9 1.66 9 2.32 9 3 C5.7 3 2.4 3 -1 3 C-0.67 2.01 -0.34 1.02 0 0 Z " fill="#080809" transform="translate(40,100)"/>
<path d="M0 0 C1.5 1.25 1.5 1.25 3 3 C3 4.32 3 5.64 3 7 C2.01 6.67 1.02 6.34 0 6 C-1.1875 3.4375 -1.1875 3.4375 -2 1 C-1.34 0.67 -0.68 0.34 0 0 Z " fill="#0A0A0A" transform="translate(137,60)"/>
<path d="M0 0 C0.66 0 1.32 0 2 0 C1.67 2.31 1.34 4.62 1 7 C0.01 7 -0.98 7 -2 7 C-1.125 2.25 -1.125 2.25 0 0 Z " fill="#131313" transform="translate(33,110)"/>
<path d="M0 0 C0.33 1.32 0.66 2.64 1 4 C1.33 4.66 1.66 5.32 2 6 C1.01 7.485 1.01 7.485 0 9 C-0.66 9 -1.32 9 -2 9 C-1.34 6.03 -0.68 3.06 0 0 Z " fill="#08080A" transform="translate(59,55)"/>
</svg>
