<svg width="99" height="99" viewBox="0 0 99 99" fill="none" xmlns="http://www.w3.org/2000/svg">
<path d="M45.4039 86.625H39.6206C24.8325 86.625 17.4405 86.625 12.8453 81.9431C8.25 77.2612 8.25 69.7249 8.25 54.6562C8.25 39.5876 8.25 32.0512 12.8453 27.3694C17.4405 22.6875 24.8325 22.6875 39.6206 22.6875H55.308C70.0961 22.6875 77.4922 22.6875 82.0875 27.3694C85.6226 30.9705 86.4352 36.2629 86.625 45.375" stroke="white" stroke-width="1.5" stroke-linecap="round"/>
<path d="M66 22.6875L65.5875 21.4088C63.5456 15.0563 62.5268 11.88 60.0971 10.065C57.6634 8.25 54.4376 8.25 47.9738 8.25H46.8889C40.4332 8.25 37.2034 8.25 34.7738 10.065C32.34 11.88 31.3211 15.0563 29.2793 21.4088L28.875 22.6875M70.5829 54.6769C71.346 53.9756 71.7255 53.625 72.1875 53.625C72.6495 53.625 73.029 53.9756 73.7921 54.6769L76.7332 57.387C77.088 57.7129 77.2654 57.8779 77.484 57.9563C77.7068 58.0388 77.946 58.0305 78.4327 58.0099L82.401 57.8531C83.424 57.8119 83.9355 57.7954 84.2861 58.0882C84.6368 58.3811 84.7069 58.8885 84.843 59.9033L85.3875 63.9705C85.4535 64.4408 85.4824 64.6717 85.5979 64.878C85.7134 65.076 85.899 65.2204 86.2702 65.5132L89.4713 68.0295C90.2633 68.6565 90.6592 68.9659 90.7376 69.4114C90.816 69.8569 90.5479 70.2859 90.0199 71.1439L87.8501 74.6377C87.6026 75.0379 87.4789 75.24 87.4376 75.4628C87.3964 75.6855 87.4459 75.9206 87.5449 76.3826L88.407 80.4169C88.6132 81.4069 88.7205 81.9019 88.4936 82.2979C88.2667 82.6939 87.7841 82.8506 86.823 83.1641L83.0032 84.4057C82.5495 84.5542 82.3185 84.6285 82.1411 84.777C81.9638 84.9296 81.8524 85.1441 81.6338 85.569L79.7692 89.1619C79.2949 90.0817 79.0556 90.5396 78.6225 90.6964C78.1894 90.8531 77.715 90.6551 76.758 90.2591L73.095 88.7411C72.6454 88.5555 72.4226 88.4606 72.1875 88.4606C71.9524 88.4606 71.7296 88.5555 71.28 88.7411L67.617 90.2591C66.66 90.6551 66.1856 90.8531 65.7525 90.6964C65.3194 90.5396 65.0801 90.0776 64.6057 89.1619L62.7413 85.569C62.5185 85.1441 62.4112 84.9296 62.2339 84.7811C62.0565 84.6326 61.8255 84.5542 61.3718 84.4099L57.552 83.1641C56.5909 82.8506 56.1082 82.6939 55.8814 82.2979C55.6545 81.9019 55.7576 81.411 55.968 80.4169L56.8342 76.3826C56.9291 75.9206 56.9786 75.6896 56.9374 75.4669C56.8528 75.1685 56.7129 74.8886 56.5249 74.6419L54.3593 71.1439C53.823 70.2859 53.559 69.8569 53.6374 69.4114C53.7158 68.9659 54.1118 68.6565 54.9038 68.0336L58.1048 65.5174C58.476 65.2204 58.6616 65.076 58.7771 64.8739C58.8926 64.6718 58.9215 64.4407 58.9834 63.9664L59.532 59.9033C59.6681 58.8926 59.7383 58.3811 60.0889 58.0882C60.4395 57.7954 60.951 57.8119 61.974 57.8531L65.9464 58.0099C66.429 58.0305 66.6682 58.0388 66.891 57.9563C67.1096 57.8738 67.287 57.7129 67.6418 57.387L70.5829 54.6769Z" stroke="white" stroke-width="1.5"/>
</svg>
