<?xml version="1.0"?>
<svg xmlns="http://www.w3.org/2000/svg" width="18" height="18" viewBox="0 0 18 18" fill="none" style="background-color:transparent;">
  <g clip-path="url(#clip0_1313_4213)">
    <rect width="18" height="18" fill="none"/>
    <path d="M14 15H3V4H9.61L10.61 3H3C2.73478 3 2.48043 3.10536 2.29289 3.29289C2.10536 3.48043 2 3.73478 2 4V15C2 15.2652 2.10536 15.5196 2.29289 15.7071C2.48043 15.8946 2.73478 16 3 16H14C14.2652 16 14.5196 15.8946 14.7071 15.7071C14.8946 15.5196 15 15.2652 15 15V7.5L14 8.5V15Z" fill="#F5F6F8"/>
    <path d="M16.7667 2.91961L15.0817 1.23461C15.0069 1.15962 14.9181 1.10013 14.8203 1.05953C14.7224 1.01894 14.6176 0.998047 14.5117 0.998047C14.4058 0.998047 14.3009 1.01894 14.2031 1.05953C14.1053 1.10013 14.0165 1.15962 13.9417 1.23461L7.08669 8.12961L6.53169 10.5346C6.50804 10.6512 6.51053 10.7716 6.53897 10.8871C6.5674 11.0026 6.62109 11.1103 6.69615 11.2026C6.77121 11.2949 6.8658 11.3694 6.97309 11.4207C7.08039 11.4721 7.19774 11.499 7.31669 11.4996C7.37817 11.5063 7.4402 11.5063 7.50169 11.4996L9.92669 10.9646L16.7667 4.05961C16.8417 3.98483 16.9012 3.89599 16.9418 3.79818C16.9824 3.70036 17.0032 3.59551 17.0032 3.48961C17.0032 3.38371 16.9824 3.27885 16.9418 3.18104C16.9012 3.08323 16.8417 2.99439 16.7667 2.91961ZM9.40669 10.0396L7.57669 10.4446L8.00169 8.62961L13.1617 3.43461L14.5717 4.84461L9.40669 10.0396ZM15.1367 4.27961L13.7267 2.86961L14.5017 2.07961L15.9217 3.49961L15.1367 4.27961Z" fill="#F5F6F8"/>
  </g>
  <defs>
    <clipPath id="clip0_1313_4213">
      <rect width="18" height="18" fill="none"/>
    </clipPath>
  </defs>
</svg>
