<svg width="19" height="20" viewBox="0 0 19 20" fill="none" xmlns="http://www.w3.org/2000/svg">
<path d="M11.363 3.65201L12.843 2.17201C13.0287 1.98621 13.2492 1.83882 13.492 1.73826C13.7347 1.6377 13.9948 1.58594 14.2575 1.58594C14.5202 1.58594 14.7804 1.6377 15.0231 1.73826C15.2658 1.83882 15.4863 1.98621 15.672 2.17201L17.086 3.58601C17.461 3.96107 17.6716 4.46968 17.6716 5.00001C17.6716 5.53034 17.461 6.03895 17.086 6.41401L15.606 7.89401M11.363 3.65201L1.74701 13.267C1.41499 13.599 1.21038 14.0373 1.16901 14.505L0.927007 17.245C0.91401 17.3907 0.933118 17.5374 0.982984 17.6749C1.03285 17.8123 1.11226 17.9372 1.21562 18.0407C1.31897 18.1441 1.44376 18.2236 1.58119 18.2736C1.71862 18.3236 1.86534 18.3429 2.01101 18.33L4.75101 18.088C5.21943 18.0471 5.65847 17.8425 5.99101 17.51L15.606 7.89401M11.363 3.65201L15.606 7.89401" stroke="black" stroke-width="1.5" stroke-linecap="round" stroke-linejoin="round"/>
</svg>
