<?xml version="1.0" encoding="UTF-8"?>
<svg version="1.1" xmlns="http://www.w3.org/2000/svg" width="366" height="264">
<path d="M0 0 C2.36864549 2.65575404 3.20539583 4.88408332 4.0625 8.3125 C4.3925 7.6525 4.7225 6.9925 5.0625 6.3125 C5.7225 6.3125 6.3825 6.3125 7.0625 6.3125 C7.3409375 5.4771875 7.3409375 5.4771875 7.625 4.625 C9.80342671 1.12057443 12.2880357 -0.99434492 16.0625 -2.6875 C21.02943932 -3.50830777 25.41992165 -3.84932371 29.625 -0.875 C30.099375 -0.153125 30.57375 0.56875 31.0625 1.3125 C32.0525 2.7975 32.0525 2.7975 33.0625 4.3125 C33.43375 3.1059375 33.43375 3.1059375 33.8125 1.875 C35.0625 -0.6875 35.0625 -0.6875 36.7421875 -1.328125 C43.1534856 -2.32112067 49.67852175 -2.71507683 55.6875 -0.125 C58.62919012 2.89410301 59.6904195 5.3487119 61.0625 9.3125 C61.619375 8.755625 62.17625 8.19875 62.75 7.625 C63.8946875 6.4803125 63.8946875 6.4803125 65.0625 5.3125 C65.8875 4.44625 66.7125 3.58 67.5625 2.6875 C71.95001546 -1.48063969 75.61979355 -2.28435495 81.578125 -2.22265625 C85.37151871 -1.40552584 86.90428348 0.7220549 89.1015625 3.78125 C89.41867188 4.2865625 89.73578125 4.791875 90.0625 5.3125 C90.7225 3.3325 91.3825 1.3525 92.0625 -0.6875 C94.43688249 -1.0258344 96.81184959 -1.35829002 99.1875 -1.6875 C99.85265625 -1.78289062 100.5178125 -1.87828125 101.203125 -1.9765625 C105.25099 -2.53215181 108.93770387 -2.6875 113.0625 -2.6875 C113.0625 1.2725 113.0625 5.2325 113.0625 9.3125 C114.0215625 7.9821875 114.0215625 7.9821875 115 6.625 C119.00045003 1.90738245 123.76139771 -1.29913502 129.984375 -2.03125 C133.96555402 -2.07337888 137.27092372 -1.95135876 141.0625 -0.6875 C142.0525 -1.0175 143.0425 -1.3475 144.0625 -1.6875 C145.90860532 -1.76989169 147.75755164 -1.79493359 149.60546875 -1.78515625 C150.67861328 -1.78193359 151.75175781 -1.77871094 152.85742188 -1.77539062 C153.97697266 -1.76701172 155.09652344 -1.75863281 156.25 -1.75 C157.94672852 -1.74323242 157.94672852 -1.74323242 159.67773438 -1.73632812 C162.47270927 -1.72453498 165.2675782 -1.7080765 168.0625 -1.6875 C167.97516424 -0.08232903 167.86697776 1.52171662 167.75 3.125 C167.69199219 4.01832031 167.63398438 4.91164063 167.57421875 5.83203125 C166.98717075 8.67764559 166.4439347 9.6721983 164.0625 11.3125 C162.7425 11.3125 161.4225 11.3125 160.0625 11.3125 C160.01424072 11.96516846 159.96598145 12.61783691 159.91625977 13.2902832 C159.33334496 20.4466542 158.28187487 27.43836425 157 34.5 C156.81373047 35.54736328 156.62746094 36.59472656 156.43554688 37.67382812 C155.98197338 40.22081773 155.52424232 42.76698099 155.0625 45.3125 C149.81864911 47.0604503 145.58927733 47.50642201 140.0625 47.3125 C140.24425781 46.28253906 140.42601562 45.25257813 140.61328125 44.19140625 C140.7333252 43.51086182 140.85336914 42.83031738 140.97705078 42.12915039 C141.24454675 40.61394164 141.51245705 39.09880599 141.78076172 37.58374023 C142.4950123 33.54701596 143.20221772 29.50929871 143.89453125 25.46875 C144.02754639 24.69845459 144.16056152 23.92815918 144.29760742 23.13452148 C144.55420308 21.64748781 144.80833934 20.16002732 145.05981445 18.67211914 C145.95006759 13.53736481 145.95006759 13.53736481 147.0625 11.3125 C142.1125 12.9625 137.1625 14.6125 132.0625 16.3125 C133.7125 17.9625 135.3625 19.6125 137.0625 21.3125 C139.40255018 25.43544556 139.63064959 29.66650258 139.0625 34.3125 C137.21330845 39.75129866 133.68663162 43.08611725 129.0625 46.3125 C126.02943887 47.32352038 123.80309761 47.5107535 120.625 47.5625 C119.67753906 47.58828125 118.73007812 47.6140625 117.75390625 47.640625 C114.6722166 47.26491828 113.34277445 46.3609735 111.0625 44.3125 C110.0725 45.3025 110.0725 45.3025 109.0625 46.3125 C106.0234375 46.7265625 106.0234375 46.7265625 102.4375 46.9375 C101.24898437 47.01226562 100.06046875 47.08703125 98.8359375 47.1640625 C97.92070312 47.21304688 97.00546875 47.26203125 96.0625 47.3125 C96.3925 44.0125 96.7225 40.7125 97.0625 37.3125 C96.0725 37.3125 95.0825 37.3125 94.0625 37.3125 C93.918125 38.611875 93.77375 39.91125 93.625 41.25 C93.1875 45.1875 93.1875 45.1875 92.0625 46.3125 C89.87957226 46.54731693 87.69046826 46.72613323 85.5 46.875 C84.30246094 46.95878906 83.10492188 47.04257813 81.87109375 47.12890625 C80.94425781 47.18949219 80.01742187 47.25007813 79.0625 47.3125 C78.7325 45.6625 78.4025 44.0125 78.0625 42.3125 C77.464375 42.951875 76.86625 43.59125 76.25 44.25 C72.88562844 47.42212176 69.61797798 47.73655552 65.05859375 47.64453125 C63.0625 47.3125 63.0625 47.3125 60.25 45.375 C57.52440539 41.55916755 56.26748404 37.80914777 55.0625 33.3125 C54.32 34.611875 54.32 34.611875 53.5625 35.9375 C50.23371857 40.95444915 44.67919962 45.15067677 39.0625 47.3125 C35.828125 47.5078125 35.828125 47.5078125 32.3125 47.4375 C29.21875 47.375625 29.21875 47.375625 26.0625 47.3125 C26.3925 43.0225 26.7225 38.7325 27.0625 34.3125 C25.825 36.1378125 25.825 36.1378125 24.5625 38 C20.74350208 43.02358839 16.85233875 46.60660637 10.50390625 47.7890625 C5.86074221 48.05123224 3.75470812 47.84931446 0 44.9375 C-2.91254001 40.99147805 -3.16477705 38.57217729 -3.5 33.6875 C-3.58378906 32.49898437 -3.66757813 31.31046875 -3.75390625 30.0859375 C-3.81449219 29.17070312 -3.87507813 28.25546875 -3.9375 27.3125 C-4.865625 27.9725 -5.79375 28.6325 -6.75 29.3125 C-9.9375 31.3125 -9.9375 31.3125 -12.9375 31.3125 C-13.10185547 32.68535156 -13.10185547 32.68535156 -13.26953125 34.0859375 C-13.50736328 35.86871094 -13.50736328 35.86871094 -13.75 37.6875 C-13.97623047 39.46253906 -13.97623047 39.46253906 -14.20703125 41.2734375 C-14.9375 44.3125 -14.9375 44.3125 -17.9375 46.3125 C-21.94806276 47.42654521 -25.79386019 47.39374784 -29.9375 47.3125 C-29.37004837 42.6107579 -28.7170919 37.99005138 -27.9375 33.3125 C-38.8275 32.8175 -38.8275 32.8175 -49.9375 32.3125 C-50.9275 36.9325 -51.9175 41.5525 -52.9375 46.3125 C-57.5575 46.6425 -62.1775 46.9725 -66.9375 47.3125 C-66.36438999 35.27718973 -64.76377752 22.79133257 -60.9375 11.3125 C-65.26198133 10.57417392 -69.59285464 9.92075035 -73.9375 9.3125 C-74.5975 11.6225 -75.2575 13.9325 -75.9375 16.3125 C-73.2975 16.3125 -70.6575 16.3125 -67.9375 16.3125 C-67.6875 23.9375 -67.6875 23.9375 -69.9375 27.3125 C-71.8828125 27.60546875 -71.8828125 27.60546875 -74.0625 27.5 C-75.34125 27.438125 -76.62 27.37625 -77.9375 27.3125 C-77.9375 29.6225 -77.9375 31.9325 -77.9375 34.3125 C-75.2975 34.3125 -72.6575 34.3125 -69.9375 34.3125 C-69.8125 40.9375 -69.8125 40.9375 -70.9375 44.3125 C-78.53728864 46.67105509 -86.00715325 47.45162889 -93.9375 47.3125 C-94.09675328 41.85445575 -93.51282915 36.80685967 -92.5625 31.4375 C-92.42457031 30.63666992 -92.28664062 29.83583984 -92.14453125 29.01074219 C-91.36026599 24.51954089 -90.52597991 20.05107182 -89.4765625 15.61328125 C-88.7086108 12.33557437 -88.01392357 9.04242982 -87.3125 5.75 C-87.05210938 4.53183594 -86.79171875 3.31367187 -86.5234375 2.05859375 C-86.33007812 1.15238281 -86.13671875 0.24617188 -85.9375 -0.6875 C-76.20898934 -1.879871 -66.53067383 -1.80264301 -56.75 -1.75 C-55.11393367 -1.74497294 -53.47786583 -1.74041217 -51.84179688 -1.73632812 C-47.87366014 -1.72542277 -43.90559709 -1.7082253 -39.9375 -1.6875 C-40.05139875 0.10490663 -40.17897687 1.89644835 -40.3125 3.6875 C-40.38210937 4.68523437 -40.45171875 5.68296875 -40.5234375 6.7109375 C-40.9375 9.3125 -40.9375 9.3125 -42.9375 11.3125 C-44.5875 11.3125 -46.2375 11.3125 -47.9375 11.3125 C-48.2675 15.6025 -48.5975 19.8925 -48.9375 24.3125 C-48.2775 22.3325 -47.6175 20.3525 -46.9375 18.3125 C-39.3475 18.3125 -31.7575 18.3125 -23.9375 18.3125 C-23.64875 16.29125 -23.36 14.27 -23.0625 12.1875 C-22.42266409 7.70864861 -21.74356125 3.48174648 -19.9375 -0.6875 C-13.28356569 -3.37242086 -6.32880928 -3.63569895 0 0 Z M127.0625 11.3125 C127.7225 12.6325 128.3825 13.9525 129.0625 15.3125 C129.7225 14.6525 130.3825 13.9925 131.0625 13.3125 C131.0625 12.3225 131.0625 11.3325 131.0625 10.3125 C128.9879644 10.1634288 128.9879644 10.1634288 127.0625 11.3125 Z M-9.9375 11.3125 C-8.9375 14.3125 -8.9375 14.3125 -8.9375 14.3125 Z M46.0625 11.3125 C45.36331695 13.89317563 44.67788951 16.47622847 44 19.0625 C43.80083984 19.79210937 43.60167969 20.52171875 43.39648438 21.2734375 C42.42505593 25.02281044 41.90800613 27.61524238 43.0625 31.3125 C43.90850276 29.2760505 44.7387825 27.23306513 45.5625 25.1875 C46.0265625 24.05054688 46.490625 22.91359375 46.96875 21.7421875 C48.04565041 18.3653355 48.27610807 15.82635272 48.0625 12.3125 C47.4025 11.9825 46.7425 11.6525 46.0625 11.3125 Z M80.125 12.25 C77.42975234 12.61639307 76.36951625 12.98086089 74.50390625 14.99609375 C71.05916363 20.73051692 69.88560284 26.73996241 69.0625 33.3125 C69.7225 33.3125 70.3825 33.3125 71.0625 33.3125 C71.0625 32.6525 71.0625 31.9925 71.0625 31.3125 C71.7225 31.3125 72.3825 31.3125 73.0625 31.3125 C73.0625 30.3225 73.0625 29.3325 73.0625 28.3125 C76.3625 28.9725 79.6625 29.6325 83.0625 30.3125 C83.90374316 28.06517898 84.73564832 25.81511215 85.5625 23.5625 C85.92021484 22.61117187 85.92021484 22.61117187 86.28515625 21.640625 C87.51051758 18.27963393 88.0625 15.94378413 88.0625 12.3125 C85.41658465 12.3125 82.77058209 12.29199337 80.125 12.25 Z M16.0625 14.3125 C10.62181338 20.65996772 9.74326828 25.17209125 10.0625 33.3125 C10.7225 33.6425 11.3825 33.9725 12.0625 34.3125 C15.62904006 32.84930408 16.91646258 31.57328111 18.8125 28.1875 C20.39360508 24.01588377 20.77154518 19.73701989 21.0625 15.3125 C19.4125 14.9825 17.7625 14.6525 16.0625 14.3125 Z M111.0625 14.3125 C111.0625 20.5825 111.0625 26.8525 111.0625 33.3125 C112.0525 31.8275 112.0525 31.8275 113.0625 30.3125 C114.0525 30.3125 115.0425 30.3125 116.0625 30.3125 C117.0625 31.3125 118.0625 32.3125 119.0625 33.3125 C121.16582891 34.02697643 121.16582891 34.02697643 123.0625 34.3125 C123.3925 32.6625 123.7225 31.0125 124.0625 29.3125 C123.43601562 28.84199219 122.80953125 28.37148437 122.1640625 27.88671875 C121.34679687 27.26410156 120.52953125 26.64148438 119.6875 26 C118.87539063 25.38511719 118.06328125 24.77023438 117.2265625 24.13671875 C113.7594282 21.21406222 112.7684847 18.66607231 112.0625 14.3125 C111.7325 14.3125 111.4025 14.3125 111.0625 14.3125 Z " fill="#879F27" transform="translate(151.9375,102.6875)"/>
<path d="M0 0 C1.63606633 0.00502706 3.27213417 0.00958783 4.90820312 0.01367188 C8.87633986 0.02457723 12.84440291 0.0417747 16.8125 0.0625 C16.69860125 1.85490663 16.57102313 3.64644835 16.4375 5.4375 C16.36789063 6.43523437 16.29828125 7.43296875 16.2265625 8.4609375 C15.8125 11.0625 15.8125 11.0625 13.8125 13.0625 C12.1625 13.0625 10.5125 13.0625 8.8125 13.0625 C8.4825 17.3525 8.1525 21.6425 7.8125 26.0625 C8.4725 24.0825 9.1325 22.1025 9.8125 20.0625 C17.0725 20.0625 24.3325 20.0625 31.8125 20.0625 C31.8125 27.0625 31.8125 27.0625 29.8125 34.0625 C22.2225 34.0625 14.6325 34.0625 6.8125 34.0625 C5.8225 38.6825 4.8325 43.3025 3.8125 48.0625 C-0.8075 48.3925 -5.4275 48.7225 -10.1875 49.0625 C-9.61438999 37.02718973 -8.01377752 24.54133257 -4.1875 13.0625 C-8.51198133 12.32417392 -12.84285464 11.67075035 -17.1875 11.0625 C-17.8475 13.3725 -18.5075 15.6825 -19.1875 18.0625 C-16.5475 18.0625 -13.9075 18.0625 -11.1875 18.0625 C-10.9375 25.6875 -10.9375 25.6875 -13.1875 29.0625 C-15.1328125 29.35546875 -15.1328125 29.35546875 -17.3125 29.25 C-18.59125 29.188125 -19.87 29.12625 -21.1875 29.0625 C-21.1875 31.3725 -21.1875 33.6825 -21.1875 36.0625 C-18.5475 36.0625 -15.9075 36.0625 -13.1875 36.0625 C-13.0625 42.6875 -13.0625 42.6875 -14.1875 46.0625 C-21.78728864 48.42105509 -29.25715325 49.20162889 -37.1875 49.0625 C-37.34675328 43.60445575 -36.76282915 38.55685967 -35.8125 33.1875 C-35.67457031 32.38666992 -35.53664062 31.58583984 -35.39453125 30.76074219 C-34.61026599 26.26954089 -33.77597991 21.80107182 -32.7265625 17.36328125 C-31.9586108 14.08557437 -31.26392357 10.79242982 -30.5625 7.5 C-30.30210938 6.28183594 -30.04171875 5.06367187 -29.7734375 3.80859375 C-29.58007812 2.90238281 -29.38671875 1.99617188 -29.1875 1.0625 C-19.45898934 -0.129871 -9.78067383 -0.05264301 0 0 Z " fill="#F0F0F0" transform="translate(95.1875,100.9375)"/>
<path d="M0 0 C7.26 0 14.52 0 22 0 C22 2.31 22 4.62 22 7 C21.01 7.33 20.02 7.66 19 8 C19 9.65 19 11.3 19 13 C12.07 13 5.14 13 -2 13 C-2 6 -2 6 0 0 Z " fill="#F8F7F6" transform="translate(105,121)"/>
<path d="M0 0 C0.33 0 0.66 0 1 0 C1.02696009 2.7708983 1.04681952 5.5415345 1.0625 8.3125 C1.07087891 9.09818359 1.07925781 9.88386719 1.08789062 10.69335938 C1.09111328 11.45068359 1.09433594 12.20800781 1.09765625 12.98828125 C1.10289307 13.68477783 1.10812988 14.38127441 1.11352539 15.09887695 C1 17 1 17 0 20 C-0.66 20 -1.32 20 -2 20 C-1.67 20.78375 -1.34 21.5675 -1 22.375 C0 25 0 25 0 27 C0.66 27.66 1.32 28.32 2 29 C-0.31 29 -2.62 29 -5 29 C-4.28272968 22.59741861 -3.17132555 16.32172104 -1.9375 10 C-1.75123047 9.03449219 -1.56496094 8.06898438 -1.37304688 7.07421875 C-0.91768657 4.71568591 -0.45995713 2.35763989 0 0 Z " fill="#828F3D" transform="translate(127,121)"/>
<path d="M0 0 C0 1.32 0 2.64 0 4 C-1.32 4 -2.64 4 -4 4 C-4.45375 4.825 -4.9075 5.65 -5.375 6.5 C-5.91125 7.325 -6.4475 8.15 -7 9 C-10.1875 9.3125 -10.1875 9.3125 -13 9 C-13 7.68 -13 6.36 -13 5 C-12.401875 4.731875 -11.80375 4.46375 -11.1875 4.1875 C-8.95616388 3.14742085 -8.95616388 3.14742085 -7.625 1.375 C-5.19604762 -0.6802674 -3.06626911 -0.20441794 0 0 Z " fill="#8BA524" transform="translate(298,107)"/>
<path d="M0 0 C0.99 0 1.98 0 3 0 C2.96519531 1.25103516 2.96519531 1.25103516 2.9296875 2.52734375 C2.8313084 8.66198314 2.94932809 14.25794367 4.5625 20.1953125 C5 22 5 22 5 25 C2.52240173 23.11974049 2.00224547 22.00945018 1.26953125 18.92578125 C0.46576046 12.5711831 -0.2563032 6.40757992 0 0 Z " fill="#687730" transform="translate(262,100)"/>
<path d="M0 0 C2 3.75 2 3.75 2 6 C8.93 6 15.86 6 23 6 C22.67 5.01 22.34 4.02 22 3 C22.33 2.34 22.66 1.68 23 1 C23.66 1 24.32 1 25 1 C24.67 2.98 24.34 4.96 24 7 C16.41 7 8.82 7 1 7 C0.67 4.69 0.34 2.38 0 0 Z " fill="#CECDC9" transform="translate(101,128)"/>
<path d="M0 0 C0.66 0.33 1.32 0.66 2 1 C1.64598897 4.18609925 1.16972964 5.79066678 -0.875 8.3125 C-3 10 -3 10 -6 10 C-5.45388137 6.17716957 -3.76181385 4.58920048 -1 2 C-0.67 1.34 -0.34 0.68 0 0 Z " fill="#7F9230" transform="translate(218,106)"/>
<path d="M0 0 C3 1 3 1 4 3 C4.04022391 5.3329866 4.04320247 7.66706666 4 10 C2.02 10.33 0.04 10.66 -2 11 C-1.34 10.34 -0.68 9.68 0 9 C0.99 9 1.98 9 3 9 C2.40138258 6.64828869 1.73075648 4.3140622 1 2 C0.34 1.67 -0.32 1.34 -1 1 C-0.67 0.67 -0.34 0.34 0 0 Z M-1 4 C-0.34 4 0.32 4 1 4 C0.67 4.99 0.34 5.98 0 7 C-0.33 6.01 -0.66 5.02 -1 4 Z " fill="#8C9D34" transform="translate(237,104)"/>
<path d="M0 0 C3 3.625 3 3.625 3 7 C3.66 7.66 4.32 8.32 5 9 C2.69 9 0.38 9 -2 9 C-1.125 1.125 -1.125 1.125 0 0 Z " fill="#788A28" transform="translate(124,141)"/>
<path d="M0 0 C0.66 0 1.32 0 2 0 C2.103125 0.61875 2.20625 1.2375 2.3125 1.875 C2.87525373 4.36526484 2.87525373 4.36526484 6 6 C6 6.66 6 7.32 6 8 C0.25 8.125 0.25 8.125 -2 7 C-1.34 4.69 -0.68 2.38 0 0 Z " fill="#8CA230" transform="translate(215,142)"/>
<path d="M0 0 C1.32 0.33 2.64 0.66 4 1 C4 2.98 4 4.96 4 7 C1.69 7.66 -0.62 8.32 -3 9 C-3.66 8.01 -4.32 7.02 -5 6 C-4.67 5.01 -4.34 4.02 -4 3 C-4 3.66 -4 4.32 -4 5 C-1.03 5.495 -1.03 5.495 2 6 C2.33 4.68 2.66 3.36 3 2 C2.01 1.67 1.02 1.34 0 1 C0 0.67 0 0.34 0 0 Z " fill="#6F7B2B" transform="translate(273,130)"/>
<path d="M0 0 C2.475 0.99 2.475 0.99 5 2 C3.02 4.97 3.02 4.97 1 8 C0.01 6.68 -0.98 5.36 -2 4 C-1.34 2.68 -0.68 1.36 0 0 Z " fill="#7E9127" transform="translate(173,136)"/>
<path d="M0 0 C1.32 0 2.64 0 4 0 C4 2.31 4 4.62 4 7 C2.68 7.33 1.36 7.66 0 8 C0 5.36 0 2.72 0 0 Z " fill="#8B9E36" transform="translate(133,140)"/>
<path d="M0 0 C0.33 0 0.66 0 1 0 C1.66 2.31 2.32 4.62 3 7 C3.33 7 3.66 7 4 7 C4 8.98 4 10.96 4 13 C3.01 13 2.02 13 1 13 C0.63631108 11.39796533 0.28438048 9.79325797 -0.0625 8.1875 C-0.25972656 7.29417969 -0.45695313 6.40085937 -0.66015625 5.48046875 C-1 3 -1 3 0 0 Z " fill="#91A433" transform="translate(182,105)"/>
<path d="M0 0 C0.33 1.98 0.66 3.96 1 6 C0.01 6.33 -0.98 6.66 -2 7 C-2 5.68 -2 4.36 -2 3 C-3.32 3 -4.64 3 -6 3 C-6 2.34 -6 1.68 -6 1 C-3 0 -3 0 0 0 Z " fill="#78862B" transform="translate(251,137)"/>
<path d="M0 0 C1.12377697 3.30435084 0.89554742 5.0506862 -0.4375 8.25 C-0.72496094 8.95640625 -1.01242188 9.6628125 -1.30859375 10.390625 C-1.53675781 10.92171875 -1.76492187 11.4528125 -2 12 C-2.66 11.67 -3.32 11.34 -4 11 C-3.34 8.36 -2.68 5.72 -2 3 C-2.66 3 -3.32 3 -4 3 C-4 2.34 -4 1.68 -4 1 C-2.68 0.67 -1.36 0.34 0 0 Z " fill="#6F7D2B" transform="translate(235,131)"/>
<path d="M0 0 C1.32 0.66 2.64 1.32 4 2 C3.67 3.32 3.34 4.64 3 6 C1.35 5.67 -0.3 5.34 -2 5 C-2 4.01 -2 3.02 -2 2 C-1.34 2 -0.68 2 0 2 C0 1.34 0 0.68 0 0 Z " fill="#758C2C" transform="translate(170,112)"/>
<path d="M0 0 C-1.33488128 3.59391114 -2.96022723 6.75490696 -5 10 C-6.36682561 7.26634878 -5.84683011 5.89333621 -5 3 C-2.62068966 0 -2.62068966 0 0 0 Z " fill="#8B9D36" transform="translate(183,128)"/>
<path d="M0 0 C0.66 0 1.32 0 2 0 C2 2.31 2 4.62 2 7 C0.68 6.67 -0.64 6.34 -2 6 C-1.34 4.02 -0.68 2.04 0 0 Z " fill="#8DA130" transform="translate(316,106)"/>
<path d="M0 0 C2.26274788 0.35355436 3.95088852 0.97544426 6 2 C6 2.66 6 3.32 6 4 C4.68 4.33 3.36 4.66 2 5 C2 4.34 2 3.68 2 3 C0.68 2.67 -0.64 2.34 -2 2 C-1.34 1.34 -0.68 0.68 0 0 Z " fill="#8BA132" transform="translate(221,104)"/>
<path d="M0 0 C2.64 0.66 5.28 1.32 8 2 C8 2.66 8 3.32 8 4 C6.35 4.33 4.7 4.66 3 5 C3 4.34 3 3.68 3 3 C2.01 2.67 1.02 2.34 0 2 C0 1.34 0 0.68 0 0 Z " fill="#82952B" transform="translate(218,145)"/>
<path d="M0 0 C0.66 0 1.32 0 2 0 C2 2.97 2 5.94 2 9 C1.34 8.67 0.68 8.34 0 8 C-1.27536232 2.55072464 -1.27536232 2.55072464 0 0 Z " fill="#849534" transform="translate(208,132)"/>
<path d="M0 0 C4.875 2.625 4.875 2.625 6 6 C4.68 6 3.36 6 2 6 C1.34 4.02 0.68 2.04 0 0 Z " fill="#798D2E" transform="translate(205,102)"/>
<path d="M0 0 C2.64 0 5.28 0 8 0 C8 0.66 8 1.32 8 2 C4.52176885 3.15941038 2.54104422 2.70820884 -1 2 C-0.67 1.34 -0.34 0.68 0 0 Z " fill="#849539" transform="translate(250,101)"/>
<path d="M0 0 C0.66 0 1.32 0 2 0 C3.76462683 3.08809695 4 4.23312136 4 8 C3.34 8 2.68 8 2 8 C0 1.125 0 1.125 0 0 Z " fill="#8B9A39" transform="translate(287,125)"/>
</svg>
