<svg width="13" height="15" viewBox="0 0 13 15" fill="none" xmlns="http://www.w3.org/2000/svg">
<path d="M0.848356 7.53646L6.50536 1.87946C7.06801 1.3168 7.83114 1.0007 8.62686 1.0007C9.42257 1.0007 10.1857 1.3168 10.7484 1.87946C11.311 2.44211 11.6271 3.20524 11.6271 4.00096C11.6271 4.79667 11.311 5.5598 10.7484 6.12246L4.03036 12.8395C3.74745 13.1127 3.36855 13.2639 2.97525 13.2605C2.58196 13.257 2.20574 13.0993 1.92763 12.8212C1.64952 12.5431 1.49176 12.1669 1.48835 11.7736C1.48493 11.3803 1.63612 11.0014 1.90936 10.7185L7.91936 4.70846C8.01324 4.6147 8.06604 4.48749 8.06613 4.35481C8.06623 4.22213 8.01361 4.09484 7.91986 4.00096C7.8261 3.90707 7.69889 3.85427 7.56621 3.85418C7.43353 3.85408 7.30624 3.9067 7.21236 4.00046L1.20236 10.0105C0.73684 10.4799 0.476247 11.1147 0.4776 11.7758C0.478954 12.437 0.742144 13.0707 1.20958 13.5382C1.67701 14.0058 2.31063 14.2692 2.97177 14.2707C3.63291 14.2723 4.26775 14.0118 4.73736 13.5465L11.4554 6.82946C12.2057 6.07929 12.6272 5.0618 12.6273 4.00081C12.6274 2.93982 12.206 1.92225 11.4559 1.17196C10.7057 0.421659 9.6882 9.37838e-05 8.62721 1.56459e-08C7.56622 -9.37525e-05 6.54865 0.421292 5.79836 1.17146L0.140356 6.82946C0.0492769 6.92376 -0.00112031 7.05006 1.89013e-05 7.18116C0.00115811 7.31226 0.0537425 7.43766 0.146447 7.53037C0.239151 7.62307 0.364557 7.67565 0.495655 7.67679C0.626754 7.67793 0.754055 7.62754 0.848356 7.53646Z" fill="#064A79" fill-opacity="0.6"/>
</svg>
