<svg width="15" height="17" viewBox="0 0 15 17" fill="none" xmlns="http://www.w3.org/2000/svg">
<path fill-rule="evenodd" clip-rule="evenodd" d="M12.6305 1.68089C8.98373 1.27413 5.303 1.27413 1.6562 1.68089C1.60029 1.6873 1.54713 1.70859 1.50226 1.74256C1.45739 1.77652 1.42245 1.8219 1.4011 1.87397C1.37975 1.92603 1.37276 1.98287 1.38087 2.03856C1.38898 2.09425 1.41189 2.14674 1.4472 2.19055L4.67111 6.17622C5.8259 7.60383 6.45589 9.38444 6.45586 11.2206V13.8689L7.83086 14.8772V11.2197C7.83105 9.38384 8.46103 7.60359 9.61561 6.17622L12.8395 2.19055C12.8748 2.14674 12.8977 2.09425 12.9059 2.03856C12.914 1.98287 12.907 1.92603 12.8856 1.87397C12.8643 1.8219 12.8293 1.77652 12.7845 1.74256C12.7396 1.70859 12.6864 1.6873 12.6305 1.68089ZM1.50403 0.314138C5.25223 -0.104713 9.03542 -0.104713 12.7836 0.314138C14.1091 0.462638 14.748 2.0173 13.9093 3.05497L10.6854 7.04064C9.72822 8.22351 9.20597 9.69902 9.20586 11.2206V16.2339C9.20596 16.361 9.17079 16.4857 9.10428 16.5941C9.03777 16.7024 8.94252 16.7902 8.82911 16.8477C8.7157 16.9051 8.58857 16.93 8.46187 16.9196C8.33516 16.9091 8.21383 16.8637 8.11136 16.7885L5.36136 14.7718C5.27434 14.7079 5.2036 14.6244 5.15487 14.528C5.10614 14.4317 5.08079 14.3252 5.08086 14.2172V11.2197C5.08086 9.69805 4.55836 8.22314 3.60228 7.03972L0.378364 3.05589C-0.461302 2.01822 0.176698 0.462638 1.50403 0.314138Z" fill="#6B7280"/>
</svg>
