<svg width="15" height="17" viewBox="0 0 15 17" fill="none" xmlns="http://www.w3.org/2000/svg">
<path d="M13.0783 0.333261C9.10443 -0.111087 5.09339 -0.111087 1.11949 0.333261C0.894968 0.358227 0.681301 0.443166 0.500914 0.579164C0.320527 0.715162 0.180069 0.897205 0.0942807 1.10619C0.00849222 1.31518 -0.0194646 1.5434 0.0133436 1.76692C0.0461519 1.99043 0.138516 2.20099 0.280743 2.37651L3.73566 6.64726C4.72535 7.8707 5.26538 9.39664 5.26558 10.9703V13.8504C5.2655 13.9584 5.29085 14.0649 5.33958 14.1612C5.38832 14.2576 5.45906 14.3411 5.54608 14.405L8.08616 16.2677C8.16541 16.3258 8.25921 16.3608 8.35716 16.3688C8.45511 16.3769 8.55336 16.3576 8.64101 16.3131C8.72866 16.2687 8.80228 16.2008 8.85369 16.1171C8.9051 16.0333 8.93229 15.937 8.93224 15.8387V10.9703C8.93249 9.39621 9.47286 7.86991 10.4631 6.64634L13.9171 2.37468C14.0591 2.19916 14.1512 1.98867 14.1839 1.76529C14.2166 1.54191 14.1885 1.31385 14.1028 1.10502C14.017 0.896181 13.8767 0.714261 13.6964 0.578318C13.5162 0.442376 13.3027 0.358333 13.0783 0.333261Z" fill="#6B7280"/>
</svg>
