<svg width="25" height="21" viewBox="0 0 25 21" fill="none" xmlns="http://www.w3.org/2000/svg">
<g clip-path="url(#clip0_1304_4473)">
<path d="M14.1406 10.4822L16.5778 13.3213L19.8554 15.4557L20.4255 10.5001L19.8554 5.65625L16.515 7.53122L14.1406 10.4822Z" fill="#00832D"/>
<path d="M0 14.9946V19.2174C0 20.1817 0.767969 20.9645 1.71426 20.9645H5.85781L6.71582 17.7738L5.85781 14.9946L3.01504 14.1201L0 14.9946Z" fill="#0066DA"/>
<path d="M5.85781 0L0 5.96997L3.01523 6.84232L5.85781 5.96997L6.7002 3.22853L5.85781 0Z" fill="#E94235"/>
<path d="M0 14.9963H5.85771V5.96973H0V14.9963Z" fill="#2684FC"/>
<path d="M23.6015 2.52798L19.8594 5.65668V15.456L23.6169 18.5969C24.1794 19.0459 25.0022 18.6367 25.0022 17.9079V3.20296C25.0022 2.46617 24.1598 2.05891 23.6014 2.52808" fill="#00AC47"/>
<path d="M14.1443 10.4824V14.9947H5.85938V20.9647H18.1449C19.0912 20.9647 19.8591 20.1818 19.8591 19.2176V15.4559L14.1443 10.4824Z" fill="#00AC47"/>
<path d="M18.2855 0H6V5.96997H14.285V10.4823L19.9998 5.65627V1.74718C19.9998 0.782773 19.2318 9.95261e-05 18.2855 9.95261e-05" fill="#FFBA00"/>
</g>
<defs>
<clipPath id="clip0_1304_4473">
<rect width="25" height="21" fill="white"/>
</clipPath>
</defs>
</svg>
