<svg width="9" height="12" viewBox="0 0 9 12" fill="none" xmlns="http://www.w3.org/2000/svg">
<path d="M0.5 4.90111V9.38396C0.5 9.76285 0.65051 10.1262 0.918419 10.3941C1.18633 10.662 1.54969 10.8125 1.92857 10.8125H6.21429C6.59317 10.8125 6.95653 10.662 7.22444 10.3941C7.49235 10.1262 7.64286 9.76285 7.64286 9.38396V4.90111C7.64271 4.56696 7.52543 4.24344 7.31143 3.98682L4.62 0.756821C4.55296 0.676435 4.46908 0.611764 4.37428 0.567384C4.27949 0.523004 4.1761 0.5 4.07143 0.5C3.96676 0.5 3.86337 0.523004 3.76857 0.567384C3.67378 0.611764 3.58989 0.676435 3.52286 0.756821L0.831429 3.98682C0.617426 4.24344 0.50015 4.56696 0.5 4.90111Z" stroke="white" stroke-linecap="round" stroke-linejoin="round"/>
</svg>
