<svg width="24" height="32" viewBox="0 0 24 32" fill="none" xmlns="http://www.w3.org/2000/svg">
<g clip-path="url(#clip0_1516_246)">
<path fill-rule="evenodd" clip-rule="evenodd" d="M12.5775 6.25938C12.444 6.25238 12.3168 6.31704 12.2437 6.42906C11.2781 7.88875 11.25 9.23031 11.25 9.25C11.2509 9.47604 11.3537 9.68962 11.5298 9.83133C11.7059 9.97305 11.9365 10.0278 12.1575 9.98031C12.5083 9.89629 12.7542 9.58069 12.75 9.22C12.7572 9.01264 12.8501 8.81755 13.0064 8.68113C13.1627 8.5447 13.3686 8.47913 13.575 8.5C13.965 8.54527 14.257 8.87904 14.25 9.27156C14.243 10.5142 13.23 11.5159 11.9873 11.5089C10.7447 11.5019 9.74301 10.4889 9.75 9.24625C9.75 9.18719 9.75844 8.23562 10.26 6.99625C10.3118 6.86699 10.2877 6.7197 10.1974 6.61369C10.1071 6.50768 9.96554 6.46042 9.82969 6.49094C5.27183 7.53789 2.09611 11.6693 2.25656 16.3431C2.4375 21.505 6.67781 25.6563 11.8425 25.7406C17.1416 25.8218 21.5351 21.6553 21.7349 16.3594C21.9347 11.0634 17.8676 6.57772 12.5775 6.25938V6.25938ZM7.5 15.9916C7.5 15.3702 8.00368 14.8666 8.625 14.8666C9.24632 14.8666 9.75 15.3702 9.75 15.9916C9.75 16.6129 9.24632 17.1166 8.625 17.1166C8.00368 17.1166 7.5 16.6129 7.5 15.9916V15.9916ZM15.0253 21.1262C13.1736 22.2806 10.8264 22.2806 8.97469 21.1262C8.62416 20.9052 8.51923 20.4418 8.74031 20.0912C8.9614 19.7407 9.42478 19.6358 9.77531 19.8569C11.1379 20.7025 12.8621 20.7025 14.2247 19.8569C14.5752 19.6358 15.0386 19.7407 15.2597 20.0912C15.4808 20.4418 15.3758 20.9052 15.0253 21.1262V21.1262ZM15.375 17.1166C14.7537 17.1166 14.25 16.6129 14.25 15.9916C14.25 15.3702 14.7537 14.8666 15.375 14.8666C15.9963 14.8666 16.5 15.3702 16.5 15.9916C16.5 16.6129 15.9963 17.1166 15.375 17.1166V17.1166Z" fill="#9EBAA6"/>
</g>
<defs>
<clipPath id="clip0_1516_246">
<rect width="24" height="24" fill="white" transform="translate(0 4)"/>
</clipPath>
</defs>
</svg>
