<svg width="25" height="32" viewBox="0 0 25 32" fill="none" xmlns="http://www.w3.org/2000/svg">
<g clip-path="url(#clip0_1516_129)">
<path fill-rule="evenodd" clip-rule="evenodd" d="M21.0503 10.75H8.91061L19.0159 7.71906C19.4128 7.59998 19.638 7.18171 19.5189 6.78484C19.3998 6.38798 18.9815 6.16279 18.5847 6.28187L3.58467 10.7819C3.26756 10.8771 3.05039 11.1689 3.05029 11.5V22.75C3.05029 23.5784 3.72187 24.25 4.55029 24.25H21.0503C21.8787 24.25 22.5503 23.5784 22.5503 22.75V12.25C22.5503 11.4216 21.8787 10.75 21.0503 10.75V10.75ZM9.80029 21.25H6.05029C5.63608 21.25 5.30029 20.9142 5.30029 20.5C5.30029 20.0858 5.63608 19.75 6.05029 19.75H9.80029C10.2145 19.75 10.5503 20.0858 10.5503 20.5C10.5503 20.9142 10.2145 21.25 9.80029 21.25V21.25ZM9.80029 18.25H6.05029C5.63608 18.25 5.30029 17.9142 5.30029 17.5C5.30029 17.0858 5.63608 16.75 6.05029 16.75H9.80029C10.2145 16.75 10.5503 17.0858 10.5503 17.5C10.5503 17.9142 10.2145 18.25 9.80029 18.25V18.25ZM9.80029 15.25H6.05029C5.63608 15.25 5.30029 14.9142 5.30029 14.5C5.30029 14.0858 5.63608 13.75 6.05029 13.75H9.80029C10.2145 13.75 10.5503 14.0858 10.5503 14.5C10.5503 14.9142 10.2145 15.25 9.80029 15.25V15.25ZM16.5503 20.125C15.1005 20.125 13.9253 18.9497 13.9253 17.5C13.9253 16.0503 15.1005 14.875 16.5503 14.875C18 14.875 19.1753 16.0503 19.1753 17.5C19.1753 18.9497 18 20.125 16.5503 20.125V20.125Z" fill="#9EB8A8"/>
</g>
<defs>
<clipPath id="clip0_1516_129">
<rect width="24" height="24" fill="white" transform="translate(0.800293 4)"/>
</clipPath>
</defs>
</svg>
