<svg width="106" height="106" viewBox="0 0 106 106" fill="none" xmlns="http://www.w3.org/2000/svg">
<path fill-rule="evenodd" clip-rule="evenodd" d="M50.0729 3.75602C41.9992 3.75602 35.3257 4.4671 30.1891 5.33277L29.5972 5.43435C25.1364 6.18077 21.4264 6.80352 18.5247 10.3722C16.6697 12.6644 16.0646 15.1422 15.9277 17.9026L13.7547 18.6269C11.7098 19.3071 9.91217 19.9078 8.49442 20.5703C6.95742 21.2858 5.5485 22.2044 4.47083 23.7017C3.39317 25.1989 2.96475 26.8243 2.77042 28.507C2.59375 30.0661 2.59375 31.952 2.59375 34.1118V34.7522C2.59375 36.5277 2.59375 38.0956 2.72625 39.4074C2.86758 40.8251 3.18117 42.2075 3.96292 43.5414C4.7535 44.8796 5.80467 45.8248 6.9795 46.6374C8.06158 47.3883 9.43075 48.1524 10.9854 49.0136L22.6454 55.4929C25.0304 60.1789 28.3032 64.3571 32.8038 67.3737C36.7213 70.006 43.0646 71.6579 48.6341 72.0951C48.4842 72.4858 48.639 73.4171 48.6341 73.8355V80.5166L40.4446 81.0477C38.6577 81.0478 36.926 81.667 35.5442 82.7999C34.1624 83.9329 33.2158 85.5097 32.8656 87.2619L31.1625 95.2199H23.3003C22.4218 95.2199 20.8816 94.5987 20.2604 95.2199C19.6392 95.8411 20.2604 94.5233 20.2604 95.4019C20.2604 96.2804 20.6094 97.1229 21.2306 97.7442C21.8518 98.3654 22.6944 98.7144 23.5729 98.7144H76.5729C77.4514 98.7144 78.294 98.3654 78.9152 97.7442C79.5364 97.1229 79.8854 96.2804 79.8854 95.4019C79.8854 94.5233 79.5364 95.8411 78.9152 95.2199C78.294 94.5987 77.4671 95.2199 76.5886 95.2199H68.7264L67.2803 87.2619C66.93 85.5097 65.9835 83.9329 64.6017 82.7999C63.2199 81.667 61.4882 81.0478 59.7012 81.0477L50.3403 80.5166V72.6544C50.3403 71.9903 51.2138 72.2487 53.1513 72.0951C58.7207 71.6534 63.4245 70.006 67.3421 67.3781C71.8471 64.3571 75.1154 60.1789 77.5004 55.4929L89.1604 49.0136C90.7151 48.1524 92.0843 47.3883 93.1663 46.6374C94.3368 45.8248 95.3923 44.8796 96.1785 43.5458C96.9647 42.2075 97.2827 40.8251 97.4196 39.4074C97.5521 38.0956 97.5521 36.5277 97.5521 34.7522V34.1118C97.5521 31.9564 97.5521 30.0661 97.3754 28.507C97.1811 26.8243 96.7571 25.1945 95.675 23.7017C94.5973 22.2044 93.1884 21.2858 91.6558 20.5659C90.2293 19.9034 88.4361 19.3071 86.3912 18.6269L84.2182 17.9026C84.0857 15.1378 83.4806 12.6644 81.6212 10.3722C78.7238 6.7991 75.0138 6.17635 70.553 5.43435L69.9567 5.33277C63.3845 4.25283 56.7333 3.7254 50.0729 3.75602ZM66.9792 95.2199L64.6017 86.2913C61.9309 84.1252 61.935 84.0252 61.7377 83.8633C61.5405 83.7015 60.2499 84.1252 58.5028 83.6706H50.0729H40.7719C39.6263 83.6706 38.6698 83.7063 39.284 84.1252C37.7962 83.7063 35.5804 86.0411 35.5304 86.2913L32.8656 95.2199H66.9792ZM15.9277 20.0846L16.0734 24.8368C16.3914 31.5501 18.7892 45.9355 20.6796 52.8697L13.1722 48.5018C11.4542 47.5434 10.9739 47.1763 10.1966 46.6374C9.48111 46.1384 7.98794 45.4599 6.72566 43.5414C4.10492 39.5582 4.95514 40.6396 5.08104 39.4074C4.98975 38.0284 5.28349 36.7798 5.31003 35.3981C5.31003 33.0175 5.18195 32.1697 5.31003 31.0302C5.4337 29.979 5.31003 25.9075 6.18361 26.6623C9.32303 23.7017 9.59309 22.7405 10.5515 22.2944C11.5938 21.8086 13.6752 20.8399 15.9277 20.0846ZM84.1343 19.6737C83.8207 26.387 80.5765 45.0619 78.6906 51.9961L84.1343 50.2489C85.8523 49.2905 84.9019 49.9142 85.6792 49.3753C86.3912 49.3753 93.1272 45.8896 92.6679 44.1339C93.856 45.1497 95.5867 40.9423 95.675 40.0766C95.7678 39.1314 95.675 37.3635 95.675 35.3981L95.2886 32.7774C95.2886 30.3968 95.4167 31.2961 95.2886 30.1566C95.1649 29.1055 95.3088 28.5417 94.415 25.7887C92.1758 22.6036 94.1077 22.9974 92.6679 23.7017C93.1979 21.5892 86.3867 20.4289 84.1343 19.6737ZM28.5418 8.73561C34.7495 7.71941 44.05 6.23387 50.3403 6.26246C58.0253 6.26246 65.7609 7.92736 70.553 8.73561C75.8839 9.63661 78.0301 11.6548 79.2093 13.1035C80.3665 14.5257 81.3518 17.3196 81.1133 23.3042C80.7158 33.277 80.5523 43.4038 76.4802 51.5923C74.4662 55.6291 69.3511 62.3993 65.9282 64.696C62.5229 66.9794 55.8543 69.0639 50.0729 69.0639C44.2915 69.0639 38.9494 67.8728 35.5442 65.5894C32.1168 63.2927 27.7532 59.5341 25.7436 55.4929C21.667 47.3088 19.4345 33.2859 19.037 23.3042C18.7985 17.324 19.518 14.5257 20.6796 13.1035C21.8544 11.6548 23.2108 9.63661 28.5418 8.73561Z" fill="white" fill-opacity="0.7"/>
</svg>
