<svg width="25" height="32" viewBox="0 0 25 32" fill="none" xmlns="http://www.w3.org/2000/svg">
<g clip-path="url(#clip0_1516_143)">
<path fill-rule="evenodd" clip-rule="evenodd" d="M21.7308 24.4694L17.0368 19.7762C19.8631 16.383 19.5206 11.3669 16.2593 8.38935C12.998 5.41176 7.97154 5.526 4.84887 8.64867C1.72619 11.7713 1.61196 16.7978 4.58954 20.0591C7.56713 23.3204 12.5832 23.6629 15.9764 20.8366L20.6696 25.5306C20.9626 25.8237 21.4378 25.8237 21.7308 25.5306C22.0239 25.2376 22.0239 24.7624 21.7308 24.4694V24.4694ZM3.9502 14.5C3.9502 10.7721 6.97227 7.75 10.7002 7.75C14.4281 7.75 17.4502 10.7721 17.4502 14.5C17.4502 18.2279 14.4281 21.25 10.7002 21.25C6.97399 21.2459 3.95433 18.2262 3.9502 14.5V14.5Z" fill="#9EB8A8"/>
</g>
<defs>
<clipPath id="clip0_1516_143">
<rect width="24" height="24" fill="white" transform="translate(0.200195 4)"/>
</clipPath>
</defs>
</svg>
