<svg width="18" height="18" viewBox="0 0 18 18" fill="none" xmlns="http://www.w3.org/2000/svg">
<path d="M7.09327 10.4067L17 0.5M7.09327 10.4067L10.2454 16.711C10.2849 16.7972 10.3484 16.8703 10.4282 16.9215C10.508 16.9728 10.6009 17 10.6957 17C10.7906 17 10.8834 16.9728 10.9632 16.9215C11.0431 16.8703 11.1065 16.7972 11.146 16.711L17 0.5M7.09327 10.4067L0.78898 7.25459C0.702754 7.21508 0.629686 7.15164 0.578459 7.07181C0.527232 6.99199 0.5 6.89913 0.5 6.80429C0.5 6.70944 0.527232 6.61658 0.578459 6.53676C0.629686 6.45693 0.702754 6.39349 0.78898 6.35398L17 0.5" stroke="#004C41" stroke-linecap="round" stroke-linejoin="round"/>
</svg>
