<svg width="65" height="29" viewBox="0 0 65 29" fill="none" xmlns="http://www.w3.org/2000/svg">
<path d="M42.15 15.8801H39.95C39.6383 15.8801 39.3773 15.7476 39.1668 15.4826C38.9563 15.2176 38.8507 14.8901 38.85 14.5C38.8493 14.1099 38.9549 13.7824 39.1668 13.5174C39.3787 13.2524 39.6398 13.1199 39.95 13.1199H42.15C42.4617 13.1199 42.7231 13.2524 42.9343 13.5174C43.1455 13.7824 43.2507 14.1099 43.25 14.5C43.2493 14.8901 43.1437 15.2181 42.9332 15.484C42.7227 15.7499 42.4617 15.8819 42.15 15.8801ZM37.31 21.1243C37.4933 20.8023 37.7317 20.6183 38.025 20.5723C38.3183 20.5263 38.5933 20.6183 38.85 20.8483L40.61 22.5044C40.8667 22.7344 41.0133 23.0334 41.05 23.4014C41.0867 23.7694 41.0133 24.1145 40.83 24.4365C40.6467 24.7585 40.4083 24.9425 40.115 24.9885C39.8217 25.0345 39.5467 24.9425 39.29 24.7125L37.53 23.0564C37.2733 22.8264 37.1267 22.5274 37.09 22.1594C37.0533 21.7913 37.1267 21.4463 37.31 21.1243ZM40.61 6.49562L38.85 8.1517C38.5933 8.38171 38.3183 8.47371 38.025 8.42771C37.7317 8.38171 37.4933 8.1977 37.31 7.87568C37.1267 7.55367 37.0533 7.20865 37.09 6.84064C37.1267 6.47262 37.2733 6.1736 37.53 5.94359L39.29 4.28751C39.5467 4.0575 39.8217 3.9655 40.115 4.0115C40.4083 4.0575 40.6467 4.24151 40.83 4.56353C41.0133 4.88554 41.0867 5.23056 41.05 5.59858C41.0133 5.96659 40.8667 6.26561 40.61 6.49562ZM24.55 18.6402H23.45C22.845 18.6402 22.3273 18.3702 21.8968 17.8301C21.4663 17.29 21.2507 16.64 21.25 15.8801V13.1199C21.25 12.3609 21.4656 11.7113 21.8968 11.1713C22.328 10.6312 22.8457 10.3607 23.45 10.3598H27.85L31.6725 7.46166C32.0392 7.18565 32.4106 7.18565 32.7868 7.46166C33.163 7.73768 33.3507 8.1402 33.35 8.66922V20.3308C33.35 20.8598 33.1619 21.2623 32.7857 21.5383C32.4095 21.8143 32.0384 21.8143 31.6725 21.5383L27.85 18.6402H26.75V22.7804C26.75 23.1714 26.6444 23.4994 26.4332 23.7644C26.222 24.0294 25.9609 24.1614 25.65 24.1605C25.3391 24.1595 25.078 24.0271 24.8668 23.763C24.6556 23.4989 24.55 23.1714 24.55 22.7804V18.6402ZM34.45 19.1232V9.87678C34.945 10.4288 35.3439 11.1018 35.6468 11.8958C35.9497 12.6898 36.1007 13.5579 36.1 14.5C36.0993 15.4421 35.9478 16.3106 35.6457 17.1056C35.3436 17.9005 34.945 18.573 34.45 19.1232Z" fill="white" fill-opacity="0.5"/>
</svg>
