<svg width="18" height="16" viewBox="0 0 18 16" fill="none" xmlns="http://www.w3.org/2000/svg">
<path d="M17.875 7.5625C17.9375 7.6875 17.9688 7.84375 17.9688 8.03125C17.9688 8.1875 17.9375 8.34375 17.875 8.46875C16.1875 11.7812 12.8125 14 9 14C5.15625 14 1.78125 11.7812 0.09375 8.46875C0.03125 8.34375 0 8.1875 0 8C0 7.84375 0.03125 7.6875 0.09375 7.5625C1.78125 4.25 5.15625 2 9 2C12.8125 2 16.1875 4.25 17.875 7.5625ZM9 12.5V12.5312C11.4688 12.5312 13.5 10.5 13.5 8.03125V8C13.5 5.53125 11.4688 3.5 9 3.5C6.5 3.5 4.5 5.53125 4.5 8C4.5 10.5 6.5 12.5 9 12.5ZM9 5V5.03125C10.6562 5.03125 12 6.34375 12 8C12 9.65625 10.6562 11 9 11C7.34375 11 6 9.65625 6 8C6 7.75 6.03125 7.46875 6.09375 7.21875C6.34375 7.40625 6.65625 7.5 7 7.5C7.8125 7.5 8.46875 6.84375 8.46875 6.03125C8.46875 5.6875 8.375 5.375 8.1875 5.125C8.4375 5.0625 8.71875 5.03125 9 5Z" fill="#9CA3AF"/>
</svg>
